<?xml version="1.0" encoding="UTF-8"?>
<svg width="26px" height="23px" viewBox="0 0 26 23" version="1.1" xmlns="http://www.w3.org/2000/svg" xmlns:xlink="http://www.w3.org/1999/xlink">
    <!-- Generator: Sketch 49.3 (51167) - http://www.bohemiancoding.com/sketch -->
    <title>Life_full</title>
    <desc>Created with Sketch.</desc>
    <defs></defs>
    <g id="Page-1" stroke="none" stroke-width="1" fill="none" fill-rule="evenodd">
        <g id="Stream@2x-Copy" transform="translate(-893.000000, -612.000000)" fill="#23BCC1">
            <path d="M905.163307,615.315489 L907.135735,615.315489 L907.135735,613.639247 L908.805898,613.639247 L908.805898,612 L912.413237,612 L912.413237,613.700488 L914.368183,613.700488 L914.368183,615.671795 L916.363263,615.671795 L916.363263,617.640561 L918.413194,617.640561 L918.413194,619.276365 L918.413194,622.594825 L916.668502,622.594825 L916.668502,624.54791 L914.696515,624.54791 L914.696515,626.196905 L912.702241,626.196905 L912.702241,628.465117 L910.751854,628.465117 L910.751854,630.464647 L908.779238,630.464647 L908.779238,632.409867 L906.779788,632.409867 L906.779788,634.405209 L905.163307,634.405209 L904.633406,634.405209 L904.633406,632.409867 L902.633956,632.409867 L902.633956,630.464647 L900.66134,630.464647 L900.66134,628.465117 L898.710953,628.465117 L898.710953,626.196905 L896.716679,626.196905 L896.716679,624.54791 L894.744691,624.54791 L894.744691,622.594825 L893,622.594825 L893,619.276365 L893,617.640561 L895.049931,617.640561 L895.049931,615.671795 L897.045011,615.671795 L897.045011,613.700488 L898.999956,613.700488 L898.999956,612 L902.607296,612 L902.607296,613.639247 L904.277458,613.639247 L904.277458,615.315489 L905.163307,615.315489 Z" id="Life_full"></path>
        </g>
    </g>
</svg>