<?xml version="1.0" encoding="UTF-8"?>
<svg width="45px" height="52px" viewBox="0 0 45 52" version="1.1" xmlns="http://www.w3.org/2000/svg" xmlns:xlink="http://www.w3.org/1999/xlink">
    <!-- Generator: Sketch 49.3 (51167) - http://www.bohemiancoding.com/sketch -->
    <title>shipp</title>
    <desc>Created with Sketch.</desc>
    <defs></defs>
    <g id="Page-1" stroke="none" stroke-width="1" fill="none" fill-rule="evenodd">
        <g id="Stream@2x-Copy" transform="translate(-701.000000, -534.000000)">
            <g id="Group-3" transform="translate(435.000000, 103.000000)">
                <g id="shipp" transform="translate(288.500000, 457.000000) rotate(-180.000000) translate(-288.500000, -457.000000) translate(266.000000, 431.000000)">
                    <rect id="Rectangle-9" fill="#25D6D1" x="0" y="33.8418605" width="5.2877907" height="12.6906977"></rect>
                    <rect id="Rectangle-9-Copy-18" fill="#25D6D1" x="19.9784884" y="32.8418605" width="5.2877907" height="19.0360465"></rect>
                    <polygon id="Rectangle-9-Copy-12" fill="#FFFFFF" points="10.5180233 22.2087209 15.805814 22.2087209 15.805814 41.2447674 10.5180233 41.2447674"></polygon>
                    <rect id="Rectangle-9-Copy-13" fill="#FFFFFF" x="12.6331395" y="16.9209302" width="5.2877907" height="10.5755814"></rect>
                    <rect id="Rectangle-9-Copy-14" fill="#FFFFFF" x="16.8633721" y="14.805814" width="5.2877907" height="9.51802326"></rect>
                    <rect id="Rectangle-9-Copy-15" fill="#FFFFFF" x="22.1511628" y="14.805814" width="5.2877907" height="9.51802326"></rect>
                    <rect id="Rectangle-9-Copy-17" fill="#FFFFFF" x="29.5540698" y="22.2087209" width="5.2877907" height="19.0360465"></rect>
                    <rect id="Rectangle-9-Copy-16" fill="#FFFFFF" x="27.4389535" y="16.9209302" width="5.2877907" height="10.5755814"></rect>
                    <rect id="Rectangle-9-Copy-11" fill="#25D6D1" x="39.0145349" y="33.8418605" width="5.2877907" height="12.6906977"></rect>
                    <rect id="Rectangle-9-Copy" fill="#25D6D1" x="0" y="13.7482558" width="5.2877907" height="12.6906977"></rect>
                    <rect id="Rectangle-9-Copy-10" fill="#25D6D1" x="39.0145349" y="13.7482558" width="5.2877907" height="12.6906977"></rect>
                    <rect id="Rectangle-9-Copy-2" fill="#25D6D1" x="3.11511628" y="7.40290698" width="5.2877907" height="7.40290698"></rect>
                    <rect id="Rectangle-9-Copy-9" fill="#25D6D1" x="35.8994186" y="7.40290698" width="5.2877907" height="7.40290698"></rect>
                    <rect id="Rectangle-9-Copy-3" fill="#25D6D1" x="8.40290698" y="3.17267442" width="5.2877907" height="7.40290698"></rect>
                    <rect id="Rectangle-9-Copy-8" fill="#25D6D1" x="31.669186" y="3.17267442" width="5.2877907" height="7.40290698"></rect>
                    <rect id="Rectangle-9-Copy-4" fill="#25D6D1" x="12.6331395" y="1.05755814" width="5.2877907" height="7.40290698"></rect>
                    <rect id="Rectangle-9-Copy-7" fill="#25D6D1" x="27.4389535" y="1.05755814" width="5.2877907" height="7.40290698"></rect>
                    <rect id="Rectangle-9-Copy-5" fill="#25D6D1" x="16.8633721" y="0" width="5.2877907" height="6.34534884"></rect>
                    <rect id="Rectangle-9-Copy-6" fill="#25D6D1" x="22.1511628" y="0" width="5.2877907" height="6.34534884"></rect>
                </g>
            </g>
        </g>
    </g>
</svg>