<?xml version="1.0" encoding="UTF-8"?>
<svg width="51px" height="43px" viewBox="0 0 51 43" version="1.1" xmlns="http://www.w3.org/2000/svg" xmlns:xlink="http://www.w3.org/1999/xlink">
    <!-- Generator: Sketch 49.3 (51167) - http://www.bohemiancoding.com/sketch -->
    <title>Logo Copy</title>
    <desc>Created with Sketch.</desc>
    <defs>
        <polygon id="path-1" points="0 0.379245902 28.3585849 0.379245902 28.3585849 42.295082 0 42.295082"></polygon>
        <polygon id="path-3" points="0.000139726027 0.379245902 12.1940301 0.379245902 12.1940301 5.21540656 0.000139726027 5.21540656"></polygon>
        <polygon id="path-5" points="0.201764384 0.590932787 15.6576986 0.590932787 15.6576986 5.42737541 0.201764384 5.42737541"></polygon>
    </defs>
    <g id="Page-1" stroke="none" stroke-width="1" fill="none" fill-rule="evenodd">
        <g id="Stream@2x-Copy" transform="translate(-338.000000, -970.000000)">
            <g id="Logo" transform="translate(338.000000, 970.000000)">
                <g>
                    <path d="M28.3582356,24.0819738 L24.2244411,24.0812689 C22.900537,24.0812689 21.8274411,22.9978098 21.8274411,21.6626951 C21.8274411,20.3268754 22.9012356,19.2448262 24.2244411,19.2448262 L28.3582356,19.2455311 C29.6821397,19.2455311 30.7552356,20.3289902 30.7552356,21.6634 C30.7552356,22.9999246 29.6814411,24.0819738 28.3582356,24.0819738" id="Fill-1" fill="#25D6D1"></path>
                    <path d="M22.471089,33.2881328 L37.8654041,33.2881328 C39.1893082,33.2881328 40.2624041,32.2060836 40.2624041,30.869559 C40.2624041,29.5337393 39.1893082,28.4516902 37.8654041,28.4516902 L22.471089,28.4516902 C18.8521849,28.4516902 15.9074589,25.4797557 15.9074589,21.8282803 C15.9074589,18.1768049 18.8521849,15.2055754 22.471089,15.2055754 L38.4648288,15.2055754 C39.7887329,15.2055754 40.8618288,14.1235262 40.8618288,12.7877066 C40.8618288,11.4518869 39.7887329,10.3691328 38.4648288,10.3691328 L22.471089,10.3691328 C16.2085685,10.3691328 11.1141575,15.5093951 11.1141575,21.8282803 C11.1141575,28.1471656 16.2085685,33.2881328 22.471089,33.2881328" id="Fill-3" fill="#FFFFFF"></path>
                    <g id="Group-7" transform="translate(0.000000, 0.325954)">
                        <mask id="mask-2" fill="white">
                            <use xlink:href="#path-1"></use>
                        </mask>
                        <g id="Clip-6"></g>
                        <path d="M25.9615849,42.295082 L20.7714616,42.295082 C9.31742055,42.295082 -0.000209589041,32.8935902 -0.000209589041,21.3371639 C-0.000209589041,9.78003279 9.31742055,0.379245902 20.7714616,0.379245902 L25.9615849,0.379245902 C27.285489,0.379245902 28.3585849,1.46129508 28.3585849,2.79711475 C28.3585849,4.13293443 27.285489,5.21568852 25.9615849,5.21568852 L20.7714616,5.21568852 C11.961037,5.21568852 4.79309178,12.4474426 4.79309178,21.3371639 C4.79309178,30.2268852 11.961037,37.4586393 20.7714616,37.4586393 L25.9615849,37.4586393 C27.285489,37.4586393 28.3585849,38.5406885 28.3585849,39.8765082 C28.3585849,41.2130328 27.285489,42.295082 25.9615849,42.295082" id="Fill-5" fill="#25D6D1" mask="url(#mask-2)"></path>
                    </g>
                    <g id="Group-10" transform="translate(32.136986, 0.325954)">
                        <mask id="mask-4" fill="white">
                            <use xlink:href="#path-3"></use>
                        </mask>
                        <g id="Clip-9"></g>
                        <path d="M9.79703014,5.21540656 L2.39713973,5.21540656 C1.07323562,5.21540656 0.000139726027,4.13335738 0.000139726027,2.79683279 C0.000139726027,1.46101311 1.07323562,0.378963934 2.39713973,0.378963934 L9.79703014,0.378963934 C11.1209342,0.378963934 12.1940301,1.46101311 12.1940301,2.79683279 C12.1940301,4.13335738 11.1209342,5.21540656 9.79703014,5.21540656" id="Fill-8" fill="#25D6D1" mask="url(#mask-4)"></path>
                    </g>
                    <g id="Group-13" transform="translate(34.931507, 18.653823)">
                        <mask id="mask-6" fill="white">
                            <use xlink:href="#path-5"></use>
                        </mask>
                        <g id="Clip-12"></g>
                        <path d="M13.2612575,5.42737541 L2.59806575,5.42737541 C1.27416164,5.42737541 0.201764384,4.34532623 0.201764384,3.00880164 C0.201764384,1.67298197 1.27416164,0.590932787 2.59806575,0.590932787 L13.2612575,0.590932787 C14.5851616,0.590932787 15.6582575,1.67298197 15.6582575,3.00880164 C15.6582575,4.34532623 14.5851616,5.42737541 13.2612575,5.42737541" id="Fill-11" fill="#25D6D1" mask="url(#mask-6)"></path>
                    </g>
                    <path d="M41.9340164,42.6210361 L34.534126,42.6210361 C33.2102219,42.6210361 32.137126,41.5389869 32.137126,40.2024623 C32.137126,38.8666426 33.2102219,37.7845934 34.534126,37.7845934 L41.9340164,37.7845934 C43.2579205,37.7845934 44.3310164,38.8666426 44.3310164,40.2024623 C44.3310164,41.5389869 43.2579205,42.6210361 41.9340164,42.6210361" id="Fill-14" fill="#25D6D1"></path>
                </g>
            </g>
        </g>
    </g>
</svg>