<?xml version="1.0" encoding="UTF-8"?>
<svg width="224px" height="42px" viewBox="0 0 224 42" version="1.1" xmlns="http://www.w3.org/2000/svg" xmlns:xlink="http://www.w3.org/1999/xlink">
    <!-- Generator: Sketch 49.3 (51167) - http://www.bohemiancoding.com/sketch -->
    <title>Group 7</title>
    <desc>Created with Sketch.</desc>
    <defs>
        <polygon id="path-1" points="0 0.37042623 27.2464836 0.37042623 27.2464836 41.3114754 0 41.3114754"></polygon>
        <polygon id="path-3" points="0.000134246575 0.37042623 11.7158329 0.37042623 11.7158329 5.09411803 0.000134246575 5.09411803"></polygon>
        <polygon id="path-5" points="0.193852055 0.577190164 15.0436712 0.577190164 15.0436712 5.30115738 0.193852055 5.30115738"></polygon>
    </defs>
    <g id="Page-1" stroke="none" stroke-width="1" fill="none" fill-rule="evenodd">
        <g id="Stream@2x-Copy" transform="translate(-608.000000, -27.000000)">
            <g id="Group-7" transform="translate(608.000000, 27.000000)">
                <g id="Logo">
                    <g>
                        <path d="M27.2461479,23.5219279 L23.274463,23.5212393 C22.0024767,23.5212393 20.971463,22.462977 20.971463,21.1589115 C20.971463,19.8541574 22.0031479,18.7972721 23.274463,18.7972721 L27.2461479,18.7979607 C28.5181342,18.7979607 29.5491479,19.856223 29.5491479,21.1596 C29.5491479,22.4650426 28.517463,23.5219279 27.2461479,23.5219279" id="Fill-1" fill="#25D6D1"></path>
                        <path d="M21.5898699,32.5139902 L36.3804863,32.5139902 C37.6524726,32.5139902 38.6834863,31.4571049 38.6834863,30.1516623 C38.6834863,28.8469082 37.6524726,27.790023 36.3804863,27.790023 L21.5898699,27.790023 C18.1128836,27.790023 15.283637,24.8872033 15.283637,21.3206459 C15.283637,17.7540885 18.1128836,14.8519574 21.5898699,14.8519574 L36.9564041,14.8519574 C38.2283904,14.8519574 39.2594041,13.7950721 39.2594041,12.490318 C39.2594041,11.1855639 38.2283904,10.1279902 36.9564041,10.1279902 L21.5898699,10.1279902 C15.5729384,10.1279902 10.6783082,15.1487115 10.6783082,21.3206459 C10.6783082,27.4925803 15.5729384,32.5139902 21.5898699,32.5139902" id="Fill-3" fill="#FFFFFF"></path>
                        <g id="Group-7" transform="translate(0.000000, 0.318374)">
                            <mask id="mask-2" fill="white">
                                <use xlink:href="#path-1"></use>
                            </mask>
                            <g id="Clip-6"></g>
                            <path d="M24.9434836,41.3114754 L19.9568945,41.3114754 C8.95203151,41.3114754 -0.000201369863,32.128623 -0.000201369863,20.8409508 C-0.000201369863,9.55259016 8.95203151,0.37042623 19.9568945,0.37042623 L24.9434836,0.37042623 C26.2154699,0.37042623 27.2464836,1.42731148 27.2464836,2.73206557 C27.2464836,4.03681967 26.2154699,5.09439344 24.9434836,5.09439344 L19.9568945,5.09439344 C11.4919767,5.09439344 4.6051274,12.1579672 4.6051274,20.8409508 C4.6051274,29.5239344 11.4919767,36.5875082 19.9568945,36.5875082 L24.9434836,36.5875082 C26.2154699,36.5875082 27.2464836,37.6443934 27.2464836,38.9491475 C27.2464836,40.2545902 26.2154699,41.3114754 24.9434836,41.3114754" id="Fill-5" fill="#25D6D1" mask="url(#mask-2)"></path>
                        </g>
                        <g id="Group-10" transform="translate(30.876712, 0.318374)">
                            <mask id="mask-4" fill="white">
                                <use xlink:href="#path-3"></use>
                            </mask>
                            <g id="Clip-9"></g>
                            <path d="M9.41283288,5.09411803 L2.30313425,5.09411803 C1.03114795,5.09411803 0.000134246575,4.03723279 0.000134246575,2.73179016 C0.000134246575,1.42703607 1.03114795,0.37015082 2.30313425,0.37015082 L9.41283288,0.37015082 C10.6848192,0.37015082 11.7158329,1.42703607 11.7158329,2.73179016 C11.7158329,4.03723279 10.6848192,5.09411803 9.41283288,5.09411803" id="Fill-8" fill="#25D6D1" mask="url(#mask-4)"></path>
                        </g>
                        <g id="Group-13" transform="translate(33.561644, 18.220013)">
                            <mask id="mask-6" fill="white">
                                <use xlink:href="#path-5"></use>
                            </mask>
                            <g id="Clip-12"></g>
                            <path d="M12.7412082,5.30115738 L2.49618082,5.30115738 C1.22419452,5.30115738 0.193852055,4.24427213 0.193852055,2.93882951 C0.193852055,1.63407541 1.22419452,0.577190164 2.49618082,0.577190164 L12.7412082,0.577190164 C14.0131945,0.577190164 15.0442082,1.63407541 15.0442082,2.93882951 C15.0442082,4.24427213 14.0131945,5.30115738 12.7412082,5.30115738" id="Fill-11" fill="#25D6D1" mask="url(#mask-6)"></path>
                        </g>
                        <path d="M40.2895452,41.6298492 L33.1798466,41.6298492 C31.9078603,41.6298492 30.8768466,40.5729639 30.8768466,39.2675213 C30.8768466,37.9627672 31.9078603,36.905882 33.1798466,36.905882 L40.2895452,36.905882 C41.5615315,36.905882 42.5925452,37.9627672 42.5925452,39.2675213 C42.5925452,40.5729639 41.5615315,41.6298492 40.2895452,41.6298492" id="Fill-14" fill="#25D6D1"></path>
                    </g>
                </g>
                <path d="M55,32.4444444 L55,6 L72.5727458,6 L72.5727458,10.9988777 L60.8575819,10.9988777 L60.8575819,16.1885522 L71.2585447,16.1885522 L71.2585447,21.0729517 L60.8575819,21.0729517 L60.8575819,27.4455668 L73.4363636,27.4455668 L73.4363636,32.4444444 L55,32.4444444 Z M96.4818182,27.3310887 L96.4818182,32.4444444 L78.0454545,32.4444444 L78.0454545,6 L84.2572747,6 L84.2572747,27.3310887 L96.4818182,27.3310887 Z M104.163636,19.2412769 C104.163636,20.5370023 104.320194,21.7056782 104.633313,22.7473398 C104.946432,23.7890013 105.397317,24.6845628 105.985981,25.434051 C106.574645,26.1835392 107.294808,26.7615256 108.146492,27.1680277 C108.998176,27.5745298 109.975093,27.7777778 111.077273,27.7777778 C112.154403,27.7777778 113.125057,27.5745298 113.989266,27.1680277 C114.853475,26.7615256 115.579901,26.1835392 116.168565,25.434051 C116.757229,24.6845628 117.208114,23.7890013 117.521233,22.7473398 C117.834352,21.7056782 117.990909,20.5370023 117.990909,19.2412769 C117.990909,17.9455516 117.834352,16.7705241 117.521233,15.7161594 C117.208114,14.6617946 116.757229,13.7598817 116.168565,13.0103935 C115.579901,12.2609053 114.853475,11.6829188 113.989266,11.2764167 C113.125057,10.8699147 112.154403,10.6666667 111.077273,10.6666667 C109.975093,10.6666667 108.998176,10.8762662 108.146492,11.2954714 C107.294808,11.7146767 106.574645,12.2990146 105.985981,13.0485028 C105.397317,13.797991 104.946432,14.699904 104.633313,15.7542687 C104.320194,16.8086335 104.163636,17.9709579 104.163636,19.2412769 Z M124.136364,20.0193638 C124.136364,22.3172084 123.802004,24.337474 123.133274,26.0802213 C122.464544,27.8229686 121.549786,29.2816908 120.388972,30.4564315 C119.228158,31.6311723 117.846558,32.5154419 116.24413,33.1092669 C114.641703,33.703092 112.919434,34 111.077273,34 C109.285582,34 107.594856,33.703092 106.005046,33.1092669 C104.415236,32.5154419 103.027327,31.6311723 101.841278,30.4564315 C100.655229,29.2816908 99.7215449,27.8229686 99.0401976,26.0802213 C98.3588503,24.337474 98.0181818,22.3172084 98.0181818,20.0193638 C98.0181818,17.7215192 98.3714677,15.7012535 99.0780501,13.9585062 C99.7846324,12.2157589 100.737243,10.7505822 101.935909,9.56293223 C103.134576,8.37528221 104.522484,7.48455806 106.099677,6.89073306 C107.67687,6.29690805 109.336052,6 111.077273,6 C112.868964,6 114.559689,6.29690805 116.149499,6.89073306 C117.73931,7.48455806 119.127218,8.37528221 120.313267,9.56293223 C121.499316,10.7505822 122.433001,12.2157589 123.114348,13.9585062 C123.795695,15.7012535 124.136364,17.7215192 124.136364,20.0193638 Z M141.621139,34 C137.428458,34 134.234377,32.7865497 132.038802,30.3596127 C129.843226,27.9326757 128.745455,24.4859606 128.745455,20.0193638 C128.745455,17.7989746 129.080368,15.8174361 129.750204,14.0746888 C130.420041,12.3319415 131.337952,10.8603103 132.503964,9.65975104 C133.669975,8.45919178 135.059245,7.54910407 136.671815,6.92946058 C138.284385,6.3098171 140.033376,6 141.918842,6 C143.010428,6 144.002764,6.0839088 144.895879,6.25172891 C145.788995,6.41954902 146.570459,6.6131847 147.240296,6.83264177 C147.910132,7.05209884 148.468321,7.27800714 148.914879,7.51037344 C149.361437,7.74273975 149.683946,7.92346639 149.882416,8.05255878 L148.207833,12.9322268 C147.413952,12.4933127 146.48984,12.1189504 145.435467,11.8091286 C144.381095,11.4993069 143.18409,11.3443983 141.844416,11.3443983 C140.951301,11.3443983 140.076805,11.4993069 139.220903,11.8091286 C138.365,12.1189504 137.608344,12.6159486 136.950912,13.3001383 C136.29348,13.984328 135.766302,14.8685976 135.369361,15.9529737 C134.972421,17.0373498 134.773954,18.3540725 134.773954,19.9031812 C134.773954,21.1424682 134.904198,22.2978277 135.16469,23.3692946 C135.425182,24.4407615 135.846925,25.3637582 136.429931,26.1383126 C137.012937,26.9128669 137.775795,27.5260466 138.718528,27.97787 C139.661261,28.4296934 140.802447,28.6556017 142.14212,28.6556017 C142.985618,28.6556017 143.742274,28.6039655 144.412111,28.5006916 C145.081947,28.3974176 145.677349,28.2747817 146.198333,28.1327801 C146.719317,27.9907785 147.178272,27.8294154 147.575212,27.648686 C147.972153,27.4679567 148.331874,27.3001391 148.654388,27.1452282 L150.254545,31.9861687 C149.435856,32.5025383 148.282266,32.967264 146.79374,33.3803596 C145.305214,33.7934553 143.581031,34 141.621139,34 Z M171.686928,32.4444444 C171.413698,31.5286149 171.109423,30.5873599 170.774095,29.620651 C170.438768,28.653942 170.109654,27.6872476 169.786746,26.7205387 L159.726961,26.7205387 C159.404053,27.6872476 159.07494,28.653942 158.739612,29.620651 C158.404284,30.5873599 158.10001,31.5286149 157.82678,32.4444444 L151.790909,32.4444444 C152.759634,29.5951971 153.678667,26.9622268 154.548035,24.5454545 C155.417404,22.1286823 156.26813,19.8518625 157.10024,17.714927 C157.93235,15.5779916 158.752028,13.5492053 159.559298,11.6285073 C160.366569,9.70780933 161.204876,7.83165899 162.074245,6 L167.625755,6 C168.470285,7.83165899 169.302382,9.70780933 170.122072,11.6285073 C170.941763,13.5492053 171.76765,15.5779916 172.59976,17.714927 C173.43187,19.8518625 174.282596,22.1286823 175.151965,24.5454545 C176.021333,26.9622268 176.940366,29.5951971 177.909091,32.4444444 L171.686928,32.4444444 Z M164.830503,12.2222222 C164.700522,12.6378307 164.505554,13.2058205 164.245593,13.9262087 C163.985632,14.6465968 163.686681,15.4778013 163.348731,16.4198473 C163.010781,17.3618933 162.640342,18.400899 162.237402,19.5368957 C161.834462,20.6728923 161.425029,21.8642855 161.009091,23.1111111 L168.690909,23.1111111 C168.274971,21.8642855 167.872037,20.6728923 167.482095,19.5368957 C167.092153,18.400899 166.721714,17.3618933 166.370766,16.4198473 C166.019818,15.4778013 165.714368,14.6465968 165.454407,13.9262087 C165.194446,13.2058205 164.98648,12.6378307 164.830503,12.2222222 Z M190.157408,28.8492393 C191.027511,28.8492393 191.745995,28.7782395 192.31288,28.6362379 C192.879766,28.4942363 193.334586,28.3006006 193.677354,28.055325 C194.020122,27.8100495 194.257419,27.519596 194.389253,27.1839557 C194.521087,26.8483155 194.587003,26.4739532 194.587003,26.0608575 C194.587003,25.1830293 194.165141,24.4536682 193.321404,23.8727524 C192.477668,23.2918367 191.027517,22.6657479 188.970909,21.9944675 C188.074439,21.6846458 187.177982,21.329647 186.281512,20.9294606 C185.385042,20.5292742 184.580868,20.0258214 183.868965,19.4190871 C183.157062,18.8123529 182.577002,18.0765373 182.128767,17.2116183 C181.680532,16.3466992 181.456418,15.294612 181.456418,14.055325 C181.456418,12.8160381 181.693715,11.6994056 182.168317,10.7053942 C182.642919,9.71138277 183.315261,8.86584028 184.185365,8.16874136 C185.055468,7.47164243 186.110123,6.93591704 187.349361,6.5615491 C188.588599,6.18718116 189.986017,6 191.541656,6 C193.38733,6 194.982496,6.19363568 196.327201,6.58091286 C197.671906,6.96819004 198.779294,7.39418855 199.649397,7.85892116 L197.869649,12.6224066 C197.105013,12.2351295 196.254697,11.8930398 195.318677,11.5961272 C194.382657,11.2992147 193.255494,11.1507607 191.937156,11.1507607 C190.460617,11.1507607 189.39937,11.3508509 188.753384,11.7510373 C188.107399,12.1512238 187.78441,12.7644034 187.78441,13.5905947 C187.78441,14.0811458 187.903059,14.4942353 188.14036,14.8298755 C188.377661,15.1655157 188.713832,15.4688783 189.148884,15.7399723 C189.583936,16.0110664 190.084897,16.2563382 190.651782,16.4757953 C191.218668,16.6952524 191.844869,16.9211607 192.530405,17.153527 C193.954211,17.6698965 195.19343,18.1798038 196.248101,18.6832642 C197.302772,19.1867245 198.179453,19.7740861 198.878173,20.4453665 C199.576892,21.116647 200.097628,21.9040988 200.440396,22.8077455 C200.783164,23.7113923 200.954545,24.8086611 200.954545,26.0995851 C200.954545,28.6039775 200.058089,30.5467889 198.265149,31.9280775 C196.472208,33.3093661 193.769655,34 190.157408,34 C188.944536,34 187.850332,33.9290002 186.874761,33.7869986 C185.899191,33.644997 185.035692,33.4707249 184.284239,33.264177 C183.532787,33.0576292 182.88681,32.8381754 182.346292,32.6058091 C181.805773,32.3734428 181.350953,32.153989 180.981818,31.9474412 L182.722016,27.1452282 C183.539386,27.5841424 184.5479,27.9778682 185.747588,28.3264177 C186.947276,28.6749672 188.417201,28.8492393 190.157408,28.8492393 Z M224,6 L224,11.0751964 L216.168293,11.0751964 L216.168293,32.4444444 L210.322616,32.4444444 L210.322616,11.0751964 L202.490909,11.0751964 L202.490909,6 L224,6 Z" id="ELOCAST" fill="#FFFFFF"></path>
            </g>
        </g>
    </g>
</svg>