<?xml version="1.0" encoding="UTF-8"?>
<svg width="572px" height="547px" viewBox="0 0 572 547" version="1.1" xmlns="http://www.w3.org/2000/svg" xmlns:xlink="http://www.w3.org/1999/xlink">
    <!-- Generator: Sketch 49.3 (51167) - http://www.bohemiancoding.com/sketch -->
    <title>Bg</title>
    <desc>Created with Sketch.</desc>
    <defs>
        <rect id="path-1" x="0" y="0" width="570" height="545"></rect>
    </defs>
    <g id="Page-1" stroke="none" stroke-width="1" fill="none" fill-rule="evenodd">
        <g id="Stream@2x-Copy" transform="translate(-434.000000, -102.000000)">
            <g id="Group-3" transform="translate(435.000000, 103.000000)">
                <g id="Bg" transform="translate(285.000000, 272.500000) scale(-1, 1) translate(-285.000000, -272.500000) ">
                    <mask id="mask-2" fill="white">
                        <use xlink:href="#path-1"></use>
                    </mask>
                    <g id="Rectangle">
                        <use fill="#282939" fill-rule="evenodd" xlink:href="#path-1"></use>
                        <rect stroke="#535582" stroke-width="1" x="-0.5" y="-0.5" width="571" height="546"></rect>
                    </g>
                    <path d="M303,28 L570,28 L570.074635,380.006766 L543.997826,380.006766 L543.997826,359.794269 L512.84355,359.794269 L512.84355,329.996844 L491.694826,329.996844 L491.694826,302.614517 L459.044938,302.614517 L459.044938,257.39368 L398.0533,257.39368 L398.0533,212.60593 L346.055762,212.60593 L303.074635,212.60593 L224.057027,212.60593 L172.059489,212.60593 L172.059489,257.39368 L111.067851,257.39368 L111.067851,302.614517 L78.4179633,302.614517 L78.4179633,329.996844 L57.2692389,329.996844 L57.2692389,359.794269 L26.1149634,359.794269 L26.1149634,380.006766 L0.0381537626,380.006766 L-0.0381537626,28 L303,28 Z" id="Combined-Shape" fill="#282634" mask="url(#mask-2)"></path>
                    <path d="M267.000269,-106 L267,-107 L570.038154,-107 L570.074635,202.006766 L543.997826,202.006766 L543.997826,181.794269 L512.84355,181.794269 L512.84355,151.996844 L491.694826,151.996844 L491.694826,124.614517 L459.044938,124.614517 L459.044938,79.3936804 L398.0533,79.3936804 L398.0533,34.60593 L346.055762,34.60593 L303.074635,34.60593 L224.057027,34.60593 L172.059489,34.60593 L172.059489,79.3936804 L111.067851,79.3936804 L111.067851,124.614517 L78.4179633,124.614517 L78.4179633,151.996844 L57.2692389,151.996844 L57.2692389,181.794269 L26.1149634,181.794269 L26.1149634,202.006766 L0.0381537626,202.006766 L0,-106 L267.000269,-106 Z" id="Combined-Shape-Copy" fill="#30293A" mask="url(#mask-2)"></path>
                </g>
            </g>
        </g>
    </g>
</svg>