<?xml version="1.0" encoding="UTF-8"?>
<svg width="79px" height="65px" viewBox="0 0 79 65" version="1.1" xmlns="http://www.w3.org/2000/svg" xmlns:xlink="http://www.w3.org/1999/xlink">
    <!-- Generator: Sketch 49.3 (51167) - http://www.bohemiancoding.com/sketch -->
    <title>Group 16</title>
    <desc>Created with Sketch.</desc>
    <defs></defs>
    <g id="Page-1" stroke="none" stroke-width="1" fill="none" fill-rule="evenodd">
        <g id="Group-16" transform="translate(2.000000, 2.000000)" fill="#CBCBCB" stroke="#979797" stroke-width="3">
            <polygon id="Path-64" points="14 21 14 33 21 33 21 37 31 37 31 33 41 33 41 21 35 21 35 17 21 17 21 21"></polygon>
            <polygon id="Path-66" points="14 27 4 27 4 10 11 10 11 6 30 6 30 16.5 21 16.5 21 21 14 21"></polygon>
            <polygon id="Path-67" points="30 6 35 6 35 3 41 3 41 0 48 0 48 3 55 3 55 7 58 7 58 24 41 24 41 21 35 21 35 16 30 16"></polygon>
            <polygon id="Path-68" points="4 27 4 34 0 34 0 48 4 48 4 51 17 51 20 51 20 41 17 41 17 37 14 37 14 27"></polygon>
            <polygon id="Path-69" points="17 51 17 55 20 55 20 58 24 58 24 61 37 61 37 54 41 54 41 57 51 57 51 61 58 61 58 57 64 57 64 44 58 44 58 41 55 41 55 38 51 38 51 41 48 41 20 41 21 51"></polygon>
            <polygon id="Path-70" points="64 47 68 47 68 44 71 44 71 37 75 37 75 31 71 31 71 24 68 24 68 20 58 20 58 24 52 24 40 24 40 47"></polygon>
            <polygon id="Path-65" points="21 37 21 47 28 47 28 50 40 50 40 47 44 47 44 44 48 44 48 37 41 37 41 33 31 33 31 37"></polygon>
        </g>
    </g>
</svg>