<?xml version="1.0" encoding="UTF-8"?>
<svg width="83px" height="105px" viewBox="0 0 83 105" version="1.1" xmlns="http://www.w3.org/2000/svg" xmlns:xlink="http://www.w3.org/1999/xlink">
    <!-- Generator: Sketch 49.3 (51167) - http://www.bohemiancoding.com/sketch -->
    <title>Meteor1</title>
    <desc>Created with Sketch.</desc>
    <defs></defs>
    <g id="Page-1" stroke="none" stroke-width="1" fill="none" fill-rule="evenodd">
        <g id="Stream@2x-Copy" transform="translate(-475.000000, -412.000000)">
            <g id="Meteor1" transform="translate(475.000000, 412.000000)">
                <polygon id="Path-52" fill="#A6A7B0" points="0.0526315789 71.8421053 0.0526315789 58.0263158 4.19736842 58.0263158 4.19736842 53.8815789 8.34210526 53.8815789 8.34210526 49.7368421 11.1052632 49.7368421 11.1052632 35.9210526 15.25 35.9210526 15.25 31.7763158 18.0131579 31.7763158 18.0131579 27.6315789 22.1578947 27.6315789 22.1578947 24.8684211 26.3026316 24.8684211 26.3026316 20.7236842 31.8289474 20.7236842 31.8289474 4.14473684 35.9736842 4.14473684 35.9736842 0 41.5 0 41.5 4.14473684 47.0263158 4.14473684 47.0263158 6.90789474 52.5526316 6.90789474 52.5526316 11.0526316 56.6973684 11.0526316 56.6973684 15.1973684 60.8421053 15.1973684 60.8421053 20.7236842 64.9868421 20.7236842 64.9868421 24.8684211 69.1315789 24.8684211 69.1315789 31.7763158 73.2763158 31.7763158 73.2763158 40.0657895 77.4210526 40.0657895 77.4210526 49.7368421 82.9473684 49.7368421 82.9473684 66.3157895 77.4210526 66.3157895 77.4210526 71.8421053 73.2763158 71.8421053 73.2763158 77.3684211 69.1315789 77.3684211 69.1315789 82.8947368 64.9868421 82.8947368 64.9868421 89.8026316 60.8421053 89.8026316 60.8421053 95.3289474 56.6973684 95.3289474 56.6973684 100.855263 52.5526316 100.855263 52.5526316 105 47.0263158 105 22.1578947 105 22.1578947 100.855263 15.25 100.855263 15.25 95.3289474 8.34210526 95.3289474 8.34210526 89.8026316 4.19736842 89.8026316 4.19736842 82.8947368 0.0526315789 82.8947368"></polygon>
                <polygon id="Path-15" fill="#757896" transform="translate(13.671756, 70.154002) rotate(-92.000000) translate(-13.671756, -70.154002) " points="11.6717562 65.6540019 11.6717562 71.6540019 8.67175621 71.6540019 8.67175621 74.6540019 14.6717562 74.6540019 14.6717562 68.6540019 18.6717562 68.6540019 18.6717562 65.6540019"></polygon>
                <polygon id="Path-11" fill="#757896" points="54 34 60 34 60 37 63 37 63 40 67 40 67 47 63 47 63 43 57 43 57 40 54 40"></polygon>
                <polygon id="Path-13" fill="#757896" points="38 72.2530756 43.2773877 72.2530756 43.2773877 65 55.7487786 65 55.7487786 70.4962032 60.8686806 70.4962032 60.8686806 88.1729876 43.2771689 88.1729876 43.2771689 82.8078511 38 82.8078511"></polygon>
            </g>
        </g>
    </g>
</svg>