<?xml version="1.0" encoding="UTF-8"?>
<svg width="70px" height="70px" viewBox="0 0 70 70" version="1.1" xmlns="http://www.w3.org/2000/svg" xmlns:xlink="http://www.w3.org/1999/xlink">
    <!-- Generator: Sketch 49.3 (51167) - http://www.bohemiancoding.com/sketch -->
    <title>Meteor3</title>
    <desc>Created with Sketch.</desc>
    <defs></defs>
    <g id="Page-1" stroke="none" stroke-width="1" fill="none" fill-rule="evenodd">
        <g id="Stream@2x-Copy" transform="translate(-837.000000, -160.000000)">
            <g id="Meteor3" transform="translate(837.000000, 160.000000)">
                <polygon id="Path-9" fill="#696FBD" points="0 23 3 23 3 16 5 16 5 10 8 10 9 7 15 7 15 3 25 3 25 0 44 0 44 3 53 3 53 6 57 6 57 9 60 9 60 13 64 13 64 19 67 19 67 26 70 26 70 54 67 54 67 58 64 58 64 61 57 61 57 64 51 64 51 67 41 67 41 70 31 70 31 67 22 67 22 64 18 64 18 61 15 61 15 58 6 58 6 50 3 50 3 45 0 45"></polygon>
                <polygon id="Path-10" fill="#40447F" points="14 16 14 22 17 22 17 26 27 26 27 23 30 23 30 16 27 16 27 13 18 13 18 16"></polygon>
                <polygon id="Path-11" fill="#40447F" points="10 43 16 43 16 46 19 46 19 49 23 49 23 56 19 56 19 52 13 52 13 49 10 49"></polygon>
                <polygon id="Path-12" fill="#40447F" points="37 61 47 61 47 67 44 67 44 64 37 64"></polygon>
                <polygon id="Path-13" fill="#40447F" points="34 39.1231056 37 39.1231056 37 35 44.0895251 35 44.0895251 38.1243885 47.0000003 38.1243885 47.0000003 48.1729876 36.9998756 48.1729876 36.9998756 45.1231056 34 45.1231056"></polygon>
                <polygon id="Path-14" fill="#40447F" points="49.5099713 19 58.5099713 19 58.5099713 26 61.5099713 26 61.5099713 32.0827625 58.5088299 32.0827625 52.5094004 32.0827625 52.5094004 25.9182559 49.5088576 25.9182559"></polygon>
                <polygon id="Path-15" fill="#40447F" points="57 45 57 51 54 51 54 54 60 54 60 48 64 48 64 45"></polygon>
            </g>
        </g>
    </g>
</svg>