<?xml version="1.0" encoding="UTF-8"?>
<svg width="108px" height="93px" viewBox="0 0 108 93" version="1.1" xmlns="http://www.w3.org/2000/svg" xmlns:xlink="http://www.w3.org/1999/xlink">
    <!-- Generator: Sketch 49.3 (51167) - http://www.bohemiancoding.com/sketch -->
    <title>Boom4 Copy</title>
    <desc>Created with Sketch.</desc>
    <defs>
        <rect id="path-1" x="105" y="16" width="3" height="3"></rect>
    </defs>
    <g id="Page-1" stroke="none" stroke-width="1" fill="none" fill-rule="evenodd">
        <g id="Boom4-Copy">
            <rect id="Rectangle-7" fill="#979797" x="5" y="53" width="3" height="3"></rect>
            <rect id="Rectangle-8" fill="#979797" x="20" y="57" width="3" height="3"></rect>
            <rect id="Rectangle-12" fill="#979797" x="0" y="71" width="3" height="3"></rect>
            <rect id="Rectangle-13" fill="#979797" x="92" y="61" width="3" height="3"></rect>
            <rect id="Rectangle-14" fill="#979797" x="94" y="73" width="3" height="3"></rect>
            <g id="Rectangle-15">
                <use fill="#979797" fill-rule="evenodd" xlink:href="#path-1"></use>
                <rect stroke="#979797" stroke-width="1" x="105.5" y="16.5" width="2" height="2"></rect>
            </g>
            <rect id="Rectangle-16" fill="#979797" x="57" y="59" width="3" height="3"></rect>
            <rect id="Rectangle-17" fill="#979797" x="82" y="90" width="3" height="3"></rect>
            <rect id="Rectangle-17-Copy-2" fill="#979797" x="29" y="64" width="3" height="3"></rect>
            <rect id="Rectangle-17-Copy" fill="#979797" x="85" y="88" width="3" height="3"></rect>
            <rect id="Rectangle-17-Copy-3" fill="#979797" x="32" y="61" width="3" height="3"></rect>
            <rect id="Rectangle-6" fill="#979797" x="46" y="36" width="3" height="3"></rect>
            <rect id="Rectangle-5" fill="#979797" x="80" y="47" width="5" height="3"></rect>
            <polygon id="Path-41" fill="#979797" points="46 11.4285714 48.8571429 11.4285714 48.8571429 8.57142857 51.1428571 8.57142857 51.1428571 11.4285714 54 11.4285714 54 13.7142857 57.4285714 13.7142857 57.4285714 8.57142857 55.1428571 8.57142857 55.1428571 0 63.1428571 0 63.1428571 2.85714286 65.4285714 2.85714286 65.4285714 11.4285714 68.8571429 11.4285714 68.8571429 16.5714286 71.1428571 16.5714286 71.1428571 19.4285714 74 19.4285714 74 25.1428571 71.1428571 25.1428571 71.1428571 22.2857143 68.8571429 22.2857143 68.8571429 17.1428571 62.5714286 17.1428571 62.5714286 22.2857143 60 22.2857143 60 24.5714286 62.5714286 24.5714286 62.5714286 28 54.5714286 28 54.5714286 19.4285714 51.1428571 19.4285714 51.1428571 14 46 14"></polygon>
            <polygon id="Path-42" fill="#979797" points="34.76 8.375 37 8.375 37 14 31.96 14 31.96 11.1875 29.16 11.1875 29.16 14 26.36 14 26.36 11.1875 23 11.1875 23 7.8125 26.36 7.8125 26.36 5 31.96 5 31.96 11.1875 34.76 11.1875"></polygon>
            <polygon id="Path-43" fill="#979797" points="83 16 89 16 89 21.7142857 92 21.7142857 92 36 83 36 83 30.2857143 80 30.2857143 80 27.3719888 83.0005882 27.3719888"></polygon>
            <polygon id="Path-44" fill="#979797" points="54.8336669 30 63 30 63 42.0135977 60.6667207 42.0135977 60.6667207 50 54.8336669 50 54.8336669 47.1428571 51.9171194 47.1428571 51.9171194 44.2291317 49 44.2291317 49 41.4285714 51.9748673 41.4285714 51.9748673 33.4120212 54.8337168 33.4120212"></polygon>
            <polygon id="Path-45" fill="#979797" points="69 30.7272727 71 30.7272727 71 28 74 28 74 34 69 34"></polygon>
            <rect id="Rectangle-4" fill="#979797" x="105" y="16" width="3" height="3"></rect>
            <polygon id="Path-46" fill="#979797" points="14.8947368 33 20.1052632 33 20.1052632 36.375 23 36.375 23 39.1875 17.7894737 39.1875 17.7894737 42 14.3157895 42 14.3157895 39.1875 12 39.1875 12 35.8125 14.8947368 35.8125"></polygon>
            <polygon id="Path-47" fill="#979797" points="28.9166667 45 34.1666667 45 34.1666667 47.9166667 37.0833333 47.9166667 37.0833333 45 40 45 40 47.9166667 37.0833333 47.9166667 37.0833333 50.8333333 34.1666667 50.8333333 34.1666667 53.75 37.0833333 53.75 37.0833333 56.6666667 34.1666667 56.6666667 34.1666667 59 28.9166667 59 28.9166667 56.6666667 26 56.6666667 26 48.5 28.9166667 48.5"></polygon>
            <polygon id="Path-48" fill="#979797" points="42.5711885 47 48.2853142 47 48.2853142 49.8570857 51.142377 49.8570857 51.142377 52.7707528 54 52.7707528 54 58.4570699 51.1422326 58.4570699 51.1422326 61.2854285 42.5711885 61.2854285 42.5711885 64.1425142 39.7141257 64.1425142 39.7141257 72.1423541 36.8004819 72.1423541 36.8004819 75 34 75 34 69.2852684 36.8570629 69.2852684 36.8570629 60.6949852 39.714189 60.6949852 39.714189 52.6937457 42.5712615 52.6937457"></polygon>
            <polygon id="Path-49" fill="#979797" points="73.7778018 65 78.7777852 65 78.7777852 67.3108271 81 67.3108271 81 70.2565652 78.7221102 70.2565652 78.7221102 76 71 76 71 67.2916459 73.8364869 67.2916459"></polygon>
            <polygon id="Path-50" fill="#979797" points="26.6 78 29 78 29 80.5 32 80.5 32 83 23 83 23 80.5 26.6 80.5"></polygon>
            <polygon id="Path-51" fill="#979797" points="46 70.75 48.8 70.75 48.8 67.3 51.6 67.3 51.6 65 56.64 65 56.64 70.75 60 70.75 60 78.8 57.2 78.8 57.2 81.675 60 81.675 60 88 48.8 88 48.8 81.675 46 81.675 46 78.8 48.8 78.8 48.8 75.925 46 75.925"></polygon>
        </g>
    </g>
</svg>