<?xml version="1.0" encoding="UTF-8"?>
<svg width="59px" height="59px" viewBox="0 0 59 59" version="1.1" xmlns="http://www.w3.org/2000/svg" xmlns:xlink="http://www.w3.org/1999/xlink">
    <!-- Generator: Sketch 49.3 (51167) - http://www.bohemiancoding.com/sketch -->
    <title>Meteor2</title>
    <desc>Created with Sketch.</desc>
    <defs></defs>
    <g id="Page-1" stroke="none" stroke-width="1" fill="none" fill-rule="evenodd">
        <g id="Stream@2x-Copy" transform="translate(-558.000000, -201.000000)">
            <g id="Meteor2" transform="translate(587.500000, 230.500000) rotate(-90.000000) translate(-587.500000, -230.500000) translate(558.000000, 201.000000)">
                <polygon id="Path-9" fill="#23BCC1" points="0 19.3857143 2.52857143 19.3857143 2.52857143 13.4857143 4.21428571 13.4857143 4.21428571 8.42857143 6.74285714 8.42857143 7.58571429 5.9 12.6428571 5.9 12.6428571 2.52857143 21.0714286 2.52857143 21.0714286 0 37.0857143 0 37.0857143 2.52857143 44.6714286 2.52857143 44.6714286 5.05714286 48.0428571 5.05714286 48.0428571 7.58571429 50.5714286 7.58571429 50.5714286 10.9571429 53.9428571 10.9571429 53.9428571 16.0142857 56.4714286 16.0142857 56.4714286 21.9142857 59 21.9142857 59 45.5142857 56.4714286 45.5142857 56.4714286 48.8857143 53.9428571 48.8857143 53.9428571 51.4142857 48.0428571 51.4142857 48.0428571 53.9428571 42.9857143 53.9428571 42.9857143 56.4714286 34.5571429 56.4714286 34.5571429 59 26.1285714 59 26.1285714 56.4714286 18.5428571 56.4714286 18.5428571 53.9428571 15.1714286 53.9428571 15.1714286 51.4142857 12.6428571 51.4142857 12.6428571 48.8857143 5.05714286 48.8857143 5.05714286 42.1428571 2.52857143 42.1428571 2.52857143 37.9285714 0 37.9285714"></polygon>
                <polygon id="Path-10" fill="#228487" points="12 13.5384615 12 18.6153846 14.4375 18.6153846 14.4375 22 22.5625 22 22.5625 19.4615385 25 19.4615385 25 13.5384615 22.5625 13.5384615 22.5625 11 15.25 11 15.25 13.5384615"></polygon>
                <polygon id="Path-11" fill="#228487" points="8 36 13.0769231 36 13.0769231 38.5384615 15.6153846 38.5384615 15.6153846 41.0769231 19 41.0769231 19 47 15.6153846 47 15.6153846 43.6153846 10.5384615 43.6153846 10.5384615 41.0769231 8 41.0769231"></polygon>
                <polygon id="Path-12" fill="#228487" points="31 51 39 51 39 56 36.6 56 36.6 53.5 31 53.5"></polygon>
                <polygon id="Path-13" fill="#228487" points="29 33.442967 31.5384615 33.442967 31.5384615 30 37.5372903 30 37.5372903 32.6089961 40 32.6089961 40 41 31.5383562 41 31.5383562 38.45322 29 38.45322"></polygon>
                <polygon id="Path-14" fill="#228487" points="42.000928 16 49.500232 16 49.500232 21.8856071 52 21.8856071 52 27 49.4992809 27 44.5002203 27 44.5002203 21.8168766 42 21.8168766"></polygon>
                <polygon id="Path-15" fill="#228487" points="48.4 38 48.4 43.3333333 46 43.3333333 46 46 50.8 46 50.8 40.6666667 54 40.6666667 54 38"></polygon>
            </g>
        </g>
    </g>
</svg>