<?xml version="1.0" encoding="UTF-8"?>
<svg width="161px" height="110px" viewBox="0 0 161 110" version="1.1" xmlns="http://www.w3.org/2000/svg" xmlns:xlink="http://www.w3.org/1999/xlink">
    <!-- Generator: Sketch 49.3 (51167) - http://www.bohemiancoding.com/sketch -->
    <title>Group 16 Copy</title>
    <desc>Created with Sketch.</desc>
    <defs></defs>
    <g id="Page-1" stroke="none" stroke-width="1" fill="none" fill-rule="evenodd">
        <g id="Group-16-Copy" transform="translate(80.500000, 55.000000) rotate(-180.000000) translate(-80.500000, -55.000000) translate(2.000000, 2.000000)" fill="#CBCBCB" stroke="#979797" stroke-width="3">
            <polygon id="Path-65-Copy" transform="translate(83.378885, 13.501271) rotate(-180.000000) translate(-83.378885, -13.501271) " points="67.480772 8.32179549 67.480772 19.8317413 75.7242379 19.8317413 75.7242379 23.2847251 89.8558936 23.2847251 89.8558936 19.8317413 94.5664455 19.8317413 94.5664455 16.3787576 99.2769974 16.3787576 99.2769974 8.32179549 91.0335316 8.32179549 91.0335316 3.71781715 79.2571518 3.71781715 79.2571518 8.32179549"></polygon>
            <rect id="Rectangle-18" x="39" y="21" width="3" height="3"></rect>
            <rect id="Rectangle-18-Copy" x="144" y="6" width="3" height="3"></rect>
            <rect id="Rectangle-18-Copy-3" x="154" y="103" width="3" height="3"></rect>
            <rect id="Rectangle-18-Copy-5" x="8" y="54" width="3" height="3"></rect>
            <rect id="Rectangle-18-Copy-6" x="0" y="66" width="1" height="1"></rect>
            <rect id="Rectangle-18-Copy-4" x="104" y="102" width="1" height="1"></rect>
            <rect id="Rectangle-18-Copy-2" x="150" y="0" width="3" height="3"></rect>
            <polygon id="Path-66" points="64.8461538 50 51 50 51 26.5238095 60.6923077 26.5238095 60.6923077 21 87 21 87 35.5 74.5384615 35.5 74.5384615 41.7142857 64.8461538 41.7142857"></polygon>
            <polygon id="Path-68" points="50.6 51 50.6 60.625 45 60.625 45 79.875 50.6 79.875 50.6 84 68.8 84 73 84 73 70.25 68.8 70.25 68.8 64.75 64.6 64.75 64.6 51"></polygon>
            <polygon id="Path-67" points="82 18.5 90.9285714 18.5 90.9285714 13.25 101.642857 13.25 101.642857 8 114.142857 8 114.142857 13.25 126.642857 13.25 126.642857 20.25 132 20.25 132 50 101.642857 50 101.642857 44.75 90.9285714 44.75 90.9285714 36 82 36"></polygon>
            <polygon id="Path-69" points="69 84.0869565 69 89.6521739 73.212766 89.6521739 73.212766 93.826087 78.8297872 93.826087 78.8297872 98 97.0851064 98 97.0851064 88.2608696 102.702128 88.2608696 102.702128 92.4347826 116.744681 92.4347826 116.744681 98 126.574468 98 126.574468 92.4347826 135 92.4347826 135 74.3478261 126.574468 74.3478261 126.574468 70.173913 122.361702 70.173913 122.361702 66 116.744681 66 116.744681 70.173913 112.531915 70.173913 73.212766 70.173913 74.6170213 84.0869565"></polygon>
            <polygon id="Path-70" points="135.342857 80 141.4 80 141.4 75.4444444 145.942857 75.4444444 145.942857 64.8148148 152 64.8148148 152 55.7037037 145.942857 55.7037037 145.942857 45.0740741 141.4 45.0740741 141.4 39 126.257143 39 126.257143 45.0740741 117.171429 45.0740741 99 45.0740741 99 80"></polygon>
            <polygon id="Path-65" points="73 64.8823529 73 79.5882353 83.3703704 79.5882353 83.3703704 84 101.148148 84 101.148148 79.5882353 107.074074 79.5882353 107.074074 75.1764706 113 75.1764706 113 64.8823529 102.62963 64.8823529 102.62963 59 87.8148148 59 87.8148148 64.8823529"></polygon>
            <polygon id="Path-64" points="59 40.4 59 62.6 71.962963 62.6 71.962963 70 90.4814815 70 90.4814815 62.6 109 62.6 109 40.4 97.8888889 40.4 97.8888889 33 71.962963 33 71.962963 40.4"></polygon>
        </g>
    </g>
</svg>