<?xml version="1.0" encoding="UTF-8"?>
<svg width="68px" height="70px" viewBox="0 0 68 70" version="1.1" xmlns="http://www.w3.org/2000/svg" xmlns:xlink="http://www.w3.org/1999/xlink">
    <!-- Generator: Sketch 49.3 (51167) - http://www.bohemiancoding.com/sketch -->
    <title>Group 9</title>
    <desc>Created with Sketch.</desc>
    <defs></defs>
    <g id="Page-1" stroke="none" stroke-width="1" fill="none" fill-rule="evenodd">
        <g id="Group-9">
            <g id="Group-8-Copy" transform="translate(34.000000, 35.000000) rotate(-180.000000) translate(-34.000000, -35.000000) ">
                <polygon id="Path-59" fill="#A93D3D" points="26.4444444 0 41.0258637 0 41.0258637 3.28125 48.5714286 3.28125 48.5714286 7.65625 53.4285714 7.65625 53.4285714 10.9375 56.6666667 10.9375 56.6666667 15.3125 60.984127 15.3125 60.984127 18.59375 64.7619048 18.59375 64.9090909 27.2222222 68 27.2222222 68 42 64.7619048 41.8784722 64.7619048 50.859375 60.984127 50.859375 60.984127 54.6875 57.7460317 54.6875 57.7460317 58.515625 53.4285714 58.515625 53.4285714 61.796875 49.1111111 61.796875 48.9761905 61.4444444 41.7272727 61.4444444 41.7272727 66.1111111 37.0909091 66.1111111 37.0909091 70 26.4444444 70 26.4444444 66.71875 18.8888889 66.71875 18.8888889 61.796875 15.1111111 61.796875 15.1111111 58.515625 10.2539683 58.515625 10.2539683 54.6875 7.01587302 54.6875 7.01587302 50.859375 3.23809524 50.859375 3.23809524 42.65625 0 42.65625 0 26.796875 3.23809524 26.796875 3.23809524 18.59375 7.01587302 18.59375 7.01587302 15.3125 10.2539683 15.3125 10.2539683 10.9375 15.1111111 10.9375 15.1111111 7.65625 18.8888889 7.65625 18.8888889 3.28125 26.4444444 3.28125"></polygon>
                <polygon id="Path-17" fill="#8D2B2B" transform="translate(49.000000, 21.000000) rotate(-90.000000) translate(-49.000000, -21.000000) " points="58 14 50.9565217 14 50.9565217 17.1111111 47.826087 17.1111111 47.826087 21 40 21 40 24.8888889 43.9130435 24.8888889 43.9130435 28 50.9565217 28 50.9565217 24.1111111 54.8695652 24.1111111 54.8695652 21 58 20.6111111"></polygon>
                <polygon id="Path-60" fill="#BE5B5B" points="15 8 30 8 30 11 15 11"></polygon>
                <polyline id="Path-63" fill="#B66565" points="45.0007694 48 65 48 65 51 45 51"></polyline>
            </g>
            <polygon id="Path-19" fill="#8D2B2B" points="38 26.6363636 38 36.0909091 43.8695652 36.0909091 43.8695652 42 60.3043478 42 60.3043478 36.0909091 65 36.0909091 65 25.4545455 59.1304348 25.4545455 59.1304348 16 43.8695652 16 43.8695652 21.9090909 38 21.9090909"></polygon>
        </g>
    </g>
</svg>