<?xml version="1.0" encoding="UTF-8"?>
<svg width="112px" height="94px" viewBox="0 0 112 94" version="1.1" xmlns="http://www.w3.org/2000/svg" xmlns:xlink="http://www.w3.org/1999/xlink">
    <!-- Generator: Sketch 49.3 (51167) - http://www.bohemiancoding.com/sketch -->
    <title>Group 31</title>
    <desc>Created with Sketch.</desc>
    <defs></defs>
    <g id="Page-1" stroke="none" stroke-width="1" fill="none" fill-rule="evenodd">
        <g id="Group-31" transform="translate(2.000000, 2.000000)" stroke="#979797" stroke-width="3">
            <polygon id="Path-71" fill="#CBCBCB" points="40.0449438 7.58189631e-07 30.3370787 7.58189631e-07 29.1235955 3.64860788 25.4831461 3.64860788 25.4831461 12.1620245 20.6292135 12.1620245 20.6292135 20.6754411 13.3483146 20.6754411 13.3483146 24.3240482 8.49438202 24.3240482 8.49438202 32.8374648 4.85393258 32.8374648 4.85393258 40.1346791 8.49438202 40.1346791 8.49438202 44.9994886 13.3483146 44.9994886 13.3483146 49.8642981 4.85393258 49.8642981 4.85393258 53.5129052 0 53.5129052 0 62.0263218 4.85393258 62.0263218 4.85393258 65.6749289 12.1348315 65.6749289 12.1348315 77.8369526 16.988764 77.8369526 16.988764 82.7017621 20.6292135 82.7017621 20.6292135 86.3503693 29.2098351 86.3503693 29.2098351 90 33.9775282 90 33.9775282 86.3503693 46.1123596 86.3503693 46.1123596 82.5043997 50.970285 82.5043997 50.970285 86.3503713 54.6067416 86.3503713 54.6067416 89.9989764 58.247191 89.9989764 58.247191 86.3503693 65.5280899 86.3503693 65.5280899 77.7505198 70.3827885 77.7505198 70.3827885 86.4358345 75.2367042 86.4358345 75.2367042 89.9989765 94.6516854 89.9989765 94.6516854 74.1416375 90.8287964 74.1416375 90.8287964 69.3200677 94.651687 69.3200677 94.651687 65.6749289 99.505618 65.6749289 99.505618 62.0263218 103.146067 62.0263218 103.146067 48.6480957 108 48.6480957 108 41.3508814 103.146067 41.3508814 103.146067 32.8374648 99.505618 32.8374648 99.505618 28.9914952 94.6476925 28.9914952 94.6476925 32.8374669 91.011236 32.8374669 91.011236 20.6754411 86.1573034 20.6754411 86.1573034 16.8294715 70.3807934 16.8294715 70.3807934 20.8627872 61.8855836 20.8627872 61.8855836 12.1620242 53.3932584 12.1620242 53.3932584 8.51341737 49.752809 8.51341737 49.752809 3.49888652 44.8965782 3.49888652 44.8965782 0"></polygon>
            <polyline id="Path-72" points="89 69 89 61.9090909 84.2005054 61.9090909 84.2005054 56 79.4010109 56 65.0025271 56 65.0025271 59.7372372 59 59.7372372"></polyline>
            <polyline id="Path-73" points="21 21 31.9999989 21 31.9999989 25.9911279 37.0779407 25.9911279 37.0779407 29.4787143 43 29.4787143 43 34.4649619 43 44"></polyline>
            <polyline id="Path-74" points="13 49.1903709 19.0708126 49.1903709 19.0708126 45.4007135 25.1448218 45.4007135 25.1448218 42 29.9982754 42 29.9982754 45.7896588 34.8589206 45.7896588 34.8589206 50.5413427 40.9277072 50.5413427 40.9277072 54.1859338 47 54.1859338 47 72"></polyline>
            <polyline id="Path-75" points="61.5120592 22 61.5120592 25.5714286 56.5013024 25.5714286 56.5013024 30.5174762 53 30.5174762 53 37.4761922 57.8661981 37.4761922 57.8661981 42.2380952 63.9426334 42.2380952 63.9426334 47 81 47"></polyline>
        </g>
    </g>
</svg>