<?xml version="1.0" encoding="UTF-8"?>
<svg width="83px" height="104px" viewBox="0 0 83 104" version="1.1" xmlns="http://www.w3.org/2000/svg" xmlns:xlink="http://www.w3.org/1999/xlink">
    <!-- Generator: Sketch 49.3 (51167) - http://www.bohemiancoding.com/sketch -->
    <title>Group 5</title>
    <desc>Created with Sketch.</desc>
    <defs></defs>
    <g id="Page-1" stroke="none" stroke-width="1" fill="none" fill-rule="evenodd">
        <g id="Group-5" transform="translate(41.500000, 52.000000) rotate(-90.000000) translate(-41.500000, -52.000000) translate(-10.500000, 10.500000)">
            <g id="Group-6">
                <polygon id="Path-16" fill="#3A38BF" points="103.054193 47.7180128 99.525994 47.7180128 99.525994 51.2462115 95.1157456 51.2462115 95.1157456 55.6564599 91.5875469 55.6564599 91.5875469 59.1846586 80.1209011 59.1846586 80.1209011 67.1231057 75.7106527 67.1231057 75.7106527 71.5333542 72.1824539 71.5333542 72.1824539 75.0615529 67.7722055 75.0615529 67.7722055 78.5897516 63.3619571 78.5897516 63.3619571 83 48.3671126 83 48.3671126 79.4718013 40.4286654 79.4718013 40.4286654 75.9436026 36.018417 75.9436026 36.018417 71.5333542 32.4902183 71.5333542 32.4902183 67.1231057 9.55692661 67.1231057 9.55692661 63.594907 0.692437029 63.594907 0.692437029 47.7179518 5.14667821 47.7179518 5.14667821 44.1898141 8.67487693 44.1898141 8.67487693 39.7795656 13.0851253 39.7795656 13.0851253 20.3744727 16.7219093 20.3744727 16.7219093 15.9628877 21.0235727 15.9628877 21.0235727 11.5539759 28.9620196 11.5539759 28.9620196 8.02577715 32.4902183 8.02577715 32.4902183 4.49757842 40.4286654 4.49757842 40.4286654 0.0873300205 63.429707 0.0873300205 63.429707 4.49809878 67.7722056 4.49809878 67.7722056 0 75.711133 0 75.711133 4.49757845 87.2111749 4.49757845 87.2111749 8.90795693 91.5875469 8.90795693 91.5875469 27.4518596 103.086477 27.4518596"></polygon>
                <polygon id="Path-17" fill="#292794" points="45 10 36 10 36 14 32 14 32 19 22 19 22 24 27 24 27 28 36 28 36 23 41 23 41 19 45 18.5"></polygon>
                <polygon id="Path-18" fill="#292794" points="33 45 33 58 38 58 38 67 29 67 29 63 25 63 25 49 29 49 29 45"></polygon>
                <polygon id="Path-19" fill="#292794" points="54 25 54 33 59 33 59 38 73 38 73 33 77 33 77 24 72 24 72 16 59 16 59 21 54 21"></polygon>
                <polygon id="Path-58" fill="#292794" points="72 57 80 57 80 61 85 61 85 70 77 70 77 66 72 66"></polygon>
            </g>
        </g>
    </g>
</svg>