<?xml version="1.0" encoding="UTF-8"?>
<svg width="27px" height="24px" viewBox="0 0 27 24" version="1.1" xmlns="http://www.w3.org/2000/svg" xmlns:xlink="http://www.w3.org/1999/xlink">
    <!-- Generator: Sketch 49.3 (51167) - http://www.bohemiancoding.com/sketch -->
    <title>Combined Shape Copy 2</title>
    <desc>Created with Sketch.</desc>
    <defs></defs>
    <g id="Page-1" stroke="none" stroke-width="1" fill="none" fill-rule="evenodd">
        <g id="Stream@2x-Copy" transform="translate(-927.000000, -611.000000)" stroke="#23BCC1">
            <path d="M940.163307,615.315489 L942.135735,615.315489 L942.135735,613.639247 L943.805898,613.639247 L943.805898,612 L947.413237,612 L947.413237,613.700488 L949.368183,613.700488 L949.368183,615.671795 L951.363263,615.671795 L951.363263,617.640561 L953.413194,617.640561 L953.413194,619.276365 L953.413194,622.594825 L951.668502,622.594825 L951.668502,624.54791 L949.696515,624.54791 L949.696515,626.196905 L947.702241,626.196905 L947.702241,628.465117 L945.751854,628.465117 L945.751854,630.464647 L943.779238,630.464647 L943.779238,632.409867 L941.779788,632.409867 L941.779788,634.405209 L940.163307,634.405209 L939.633406,634.405209 L939.633406,632.409867 L937.633956,632.409867 L937.633956,630.464647 L935.66134,630.464647 L935.66134,628.465117 L933.710953,628.465117 L933.710953,626.196905 L931.716679,626.196905 L931.716679,624.54791 L929.744691,624.54791 L929.744691,622.594825 L928,622.594825 L928,619.276365 L928,617.640561 L930.049931,617.640561 L930.049931,615.671795 L932.045011,615.671795 L932.045011,613.700488 L933.999956,613.700488 L933.999956,612 L937.607296,612 L937.607296,613.639247 L939.277458,613.639247 L939.277458,615.315489 L940.163307,615.315489 Z" id="Combined-Shape-Copy-2"></path>
        </g>
    </g>
</svg>