<?xml version="1.0" encoding="UTF-8"?>
<svg width="313px" height="47px" viewBox="0 0 313 47" version="1.1" xmlns="http://www.w3.org/2000/svg" xmlns:xlink="http://www.w3.org/1999/xlink">
    <!-- Generator: Sketch 49.3 (51167) - http://www.bohemiancoding.com/sketch -->
    <title>Logo-retro</title>
    <desc>Created with Sketch.</desc>
    <defs></defs>
    <g id="Page-1" stroke="none" stroke-width="1" fill="none" fill-rule="evenodd">
        <g id="Stream@2x-Copy" transform="translate(-561.000000, -320.000000)">
            <g id="Group-4" transform="translate(434.000000, 227.000000)">
                <g id="Group-11" transform="translate(0.000000, 58.000000)">
                    <g id="Group-10" transform="translate(127.000000, 35.000000)">
                        <g id="Logo-retro">
                            <g id="shipp" transform="translate(27.500000, 23.500000) rotate(-90.000000) translate(-27.500000, -23.500000) translate(4.000000, -4.000000)">
                                <rect id="Rectangle-9" fill="#25D6D1" x="0" y="35.8061476" width="5.59471056" height="13.4273053"></rect>
                                <rect id="Rectangle-9-Copy-18" fill="#25D6D1" x="21.1381021" y="34.7481044" width="5.59471056" height="20.140958"></rect>
                                <polygon id="Rectangle-9-Copy-12" fill="#FFFFFF" points="11.1285221 23.4977843 16.7232327 23.4977843 16.7232327 43.6387423 11.1285221 43.6387423"></polygon>
                                <rect id="Rectangle-9-Copy-13" fill="#FFFFFF" x="13.3664063" y="17.9030738" width="5.59471056" height="11.1894211"></rect>
                                <rect id="Rectangle-9-Copy-14" fill="#FFFFFF" x="17.8421748" y="15.6651896" width="5.59471056" height="10.070479"></rect>
                                <rect id="Rectangle-9-Copy-15" fill="#FFFFFF" x="23.4368853" y="15.6651896" width="5.59471056" height="10.070479"></rect>
                                <rect id="Rectangle-9-Copy-17" fill="#FFFFFF" x="31.2694801" y="23.4977843" width="5.59471056" height="20.140958"></rect>
                                <rect id="Rectangle-9-Copy-16" fill="#FFFFFF" x="29.0315959" y="17.9030738" width="5.59471056" height="11.1894211"></rect>
                                <rect id="Rectangle-9-Copy-11" fill="#25D6D1" x="41.2636816" y="35.973466" width="5.59471056" height="13.4273053"></rect>
                                <rect id="Rectangle-9-Copy" fill="#25D6D1" x="0" y="14.5462474" width="5.59471056" height="13.4273053"></rect>
                                <rect id="Rectangle-9-Copy-10" fill="#25D6D1" x="41.2790601" y="14.5462474" width="5.59471056" height="13.4273053"></rect>
                                <rect id="Rectangle-9-Copy-2" fill="#25D6D1" x="3.29592734" y="7.83259478" width="5.59471056" height="7.83259478"></rect>
                                <rect id="Rectangle-9-Copy-9" fill="#25D6D1" x="37.9831328" y="7.83259478" width="5.59471056" height="7.83259478"></rect>
                                <rect id="Rectangle-9-Copy-3" fill="#25D6D1" x="8.8906379" y="3.35682633" width="5.59471056" height="7.83259478"></rect>
                                <rect id="Rectangle-9-Copy-8" fill="#25D6D1" x="33.5073643" y="3.35682633" width="5.59471056" height="7.83259478"></rect>
                                <rect id="Rectangle-9-Copy-4" fill="#25D6D1" x="13.3664063" y="1.11894211" width="5.59471056" height="7.83259478"></rect>
                                <rect id="Rectangle-9-Copy-7" fill="#25D6D1" x="29.0315959" y="1.11894211" width="5.59471056" height="7.83259478"></rect>
                                <rect id="Rectangle-9-Copy-5" fill="#25D6D1" x="17.8421748" y="0" width="5.59471056" height="6.71365267"></rect>
                                <rect id="Rectangle-9-Copy-6" fill="#25D6D1" x="23.4368853" y="0" width="5.59471056" height="6.71365267"></rect>
                            </g>
                            <path d="M99.625,6.375 L99.625,10.75 L82.125,10.75 L82.125,19.5 L95.25,19.5 L95.25,23.875 L82.125,23.875 L82.125,32.625 L99.625,32.625 L99.625,37 L73.375,37 L73.375,6.375 L99.625,6.375 Z M117.660714,6.375 L117.660714,32.625 L135.160714,32.625 L135.160714,37 L108.910714,37 L108.910714,6.375 L117.660714,6.375 Z M148.821429,10.75 L148.821429,32.625 L161.946429,32.625 L161.946429,10.75 L148.821429,10.75 Z M140.071429,10.75 L144.446429,10.75 L144.446429,6.375 L166.321429,6.375 L166.321429,10.75 L170.696429,10.75 L170.696429,32.625 L166.321429,32.625 L166.321429,37 L144.446429,37 L144.446429,32.625 L140.071429,32.625 L140.071429,10.75 Z M175.607143,15.125 L179.982143,15.125 L179.982143,10.75 L184.357143,10.75 L184.357143,6.375 L201.857143,6.375 L201.857143,10.75 L206.232143,10.75 L206.232143,15.125 L197.482143,15.125 L197.482143,10.75 L188.732143,10.75 L188.732143,15.125 L184.357143,15.125 L184.357143,28.25 L188.732143,28.25 L188.732143,32.625 L197.482143,32.625 L197.482143,28.25 L206.232143,28.25 L206.232143,32.625 L201.857143,32.625 L201.857143,37 L184.357143,37 L184.357143,32.625 L179.982143,32.625 L179.982143,28.25 L175.607143,28.25 L175.607143,15.125 Z M219.892857,15.125 L219.892857,23.875 L233.017857,23.875 L233.017857,15.125 L228.642857,15.125 L228.642857,10.75 L224.267857,10.75 L224.267857,15.125 L219.892857,15.125 Z M211.142857,15.125 L215.517857,15.125 L215.517857,10.75 L219.892857,10.75 L219.892857,6.375 L233.017857,6.375 L233.017857,10.75 L237.392857,10.75 L237.392857,15.125 L241.767857,15.125 L241.767857,37 L233.017857,37 L233.017857,28.25 L219.892857,28.25 L219.892857,37 L211.142857,37 L211.142857,15.125 Z M246.678572,28.25 L255.428572,28.25 L255.428572,32.625 L268.553571,32.625 L268.553571,23.875 L251.053572,23.875 L251.053572,19.5 L246.678572,19.5 L246.678572,10.75 L251.053572,10.75 L251.053572,6.375 L268.553571,6.375 L268.553571,10.75 L272.928571,10.75 L272.928571,15.125 L264.178571,15.125 L264.178571,10.75 L255.428572,10.75 L255.428572,19.5 L272.928571,19.5 L272.928571,23.875 L277.303571,23.875 L277.303571,32.625 L272.928571,32.625 L272.928571,37 L251.053572,37 L251.053572,32.625 L246.678572,32.625 L246.678572,28.25 Z M312.839286,6.375 L312.839286,10.75 L304.089286,10.75 L304.089286,37 L295.339286,37 L295.339286,10.75 L286.589286,10.75 L286.589286,6.375 L312.839286,6.375 Z" id="ELOCAST" fill="#FFFFFF"></path>
                        </g>
                    </g>
                </g>
            </g>
        </g>
    </g>
</svg>