<?xml version="1.0" encoding="UTF-8"?>
<svg width="74px" height="80px" viewBox="0 0 74 80" version="1.1" xmlns="http://www.w3.org/2000/svg" xmlns:xlink="http://www.w3.org/1999/xlink">
    <!-- Generator: Sketch 49.3 (51167) - http://www.bohemiancoding.com/sketch -->
    <title>Boom2</title>
    <desc>Created with Sketch.</desc>
    <defs>
        <polygon id="path-1" points="27.6510768 1.7831668e-07 27.6510768 2.19177981 23.7886785 2.19177981 23.7886785 3.92453375 19.3503737 3.92453375 19.3503737 6.02753076 15.4726731 6.02753076 15.4726731 8.81396216 13.7798421 8.81396216 13.7798421 11.5478135 11.5893906 11.5478135 11.5893906 14.438582 9.4129134 14.438582 9.4129134 16.4385651 7.16677193 16.4385651 7.16677193 19.760824 4.96691147 19.760824 4.96691147 23.5926818 2.21984015 23.5926818 2.21984015 27.9736477 0 27.9736477 0 46.5816614 1.802328 46.5816614 1.802328 50.9834043 4.52813091 50.9834043 4.52813091 65.205536 6.75324599 65.205536 6.75324599 67.9867198 11.2257829 67.9867198 11.2257829 71.8040682 13.3051582 71.8040682 13.3051582 73.5147058 19.3919957 73.5147058 19.3919957 75.6823365 22.7207132 75.6823365 22.7207132 77.8691086 31.5271409 77.8691086 31.5271409 80 39.2579845 80 39.2579845 77.7453911 43.652896 77.7453911 43.652896 75.6163975 51.3772378 75.6163975 51.3772378 71.7807832 54.1907298 71.7807832 54.1907298 68.9756561 55.8635355 68.9756561 55.8635355 65.1754752 59.102175 65.1754752 59.102175 61.8720372 61.3095997 61.8720372 61.3095997 59.7259951 64.0679751 59.7259951 64.0679751 57.5342155 65.7232886 57.5342155 65.7232886 55.3424359 67.9303734 55.3424359 67.9303734 53.1506563 69.5856869 53.1506563 69.5856869 49.8176375 71.793244 49.8176375 71.793244 43.8105926 74 43.8105926 74 30.1369701 71.7927717 30.1369701 71.7927717 24.0847208 69.585545 24.0847208 69.585545 18.0821821 66.2293919 18.0821821 66.2293919 12.5029355 63.4789301 12.5029355 63.4789301 8.21901388 60.1594247 8.21901388 60.1594247 5.47906591 56.3431785 5.47906591 56.3431785 3.76814799 50.8250484 3.76814799 50.8250484 2.09939838 45.8586546 2.09939838 45.8586546 0"></polygon>
        <polygon id="path-2" points="28.8702896 3.53211009 12.1897342 3.53211009 12.1897342 6.05922923 5.74213782 6.05922923 5.74213782 12.4054795 2.50777973 12.4054795 2.50777973 19.980173 0 19.980173 0 30.7172385 4.05174078 30.7172385 4.05174078 35.1422938 7.12054605 35.1422938 7.12054605 37.7121063 13.4989767 37.7121063 13.4989767 40.2487992 21.8324403 40.2487992 21.8324403 43.3944954 39.7769109 43.3944954 39.7769109 41.4388971 42.4220286 41.4388971 42.4220286 38.9105814 44.9092855 38.9105814 44.9092855 36.3846589 47.4755245 36.3846589 47.4755245 18.0630451 45.4467342 18.0630451 45.4467342 14.8601161 42.9841998 14.8601161 42.9841998 11.4988692 40.3886903 11.4988692 40.3886903 7.9544481 35.2457306 7.9544481 35.2457306 6.0588167 28.8702896 6.0588167"></polygon>
        <polygon id="path-3" points="26.034965 8.70867249 26.034965 5.62027599 29.129328 5.62027599 29.129328 3.1495588 32.223691 3.1495588 32.223691 0 58.2164124 0 58.2164124 1.9142002 61.9807962 1.9142002 61.9807962 6.39719866 65.0584077 6.39719866 65.0584077 11.1795134 66.8805565 11.1795134 66.8805565 19.2329428 69.4265734 19.2329428 69.4265734 27.8740795 67.4993507 27.8740795 67.4993507 30.3274479 65.6428113 30.3274479 65.6428113 32.7981651 51.3550279 32.7981651 51.3550279 28.4377716 48.314157 28.4377716 48.314157 25.3241753 45.1702955 25.3241753 45.1702955 22.2972103 42.6669257 22.2972103 42.6669257 19.825686 40.2690345 19.825686 40.2690345 17.8735642 37.1730405 17.8735642 37.1730405 16.0157114 34.0785162 16.0157114 34.0785162 13.5712472 31.6035569 13.5712472 31.6035569 10.5617101 26.034965 10.5617101"></polygon>
        <polyline id="path-4" points="38.2867133 41.1289296 38.2867133 47.3972141 40.7662099 47.3972141 40.7662099 52.5661739 43.2503992 52.5661739 43.2503992 55 48.850662 55 55.0238331 55 55.0238331 51.7245767 57.0032727 51.7245767 64.9415268 51.7245767 64.9415268 49.7996854 67.4229653 49.7996854 67.4229653 47.3173397 69.901554 47.3173397 69.901554 44.8898999 72.9996658 44.8898999 72.9996658 39.8362478 70.4529439 39.8362478 70.4529439 36.0725803 73 36.0725803 73 21.6972477 69.900295 21.6972477 69.900295 24.2045615 68.0406726 24.2045615 68.0406726 26.7890414 52.5281889 26.7890414 52.5281889 24.1333144 47.5843235 24.1333144 47.5843235 33.0023025 45.0342273 33.0023025 45.0342273 35.4885134 42.6258321 35.4885134 42.6258321 38.0719845 40.1451608 38.0719845 40.1451608 41.1289298"></polyline>
        <polygon id="path-5" points="18.6818182 44 41.0909091 44 41.0909091 50.804878 43.4090909 50.804878 43.4090909 57.6097561 46.5 57.6097561 46.5 59.8780488 51.9090909 59.8780488 51.9090909 62.1463415 55 62.1463415 55 66.6829268 51.9090909 66.6829268 51.9090909 69.7073171 46.5 69.7073171 46.5 71.9756098 41.0909091 71.9756098 41.0909091 75 24.8636364 75 24.8636364 71.9756098 18.6818182 71.9756098 18.6818182 69.7073171 13.2727273 69.7073171 13.2727273 66.6829268 7.09090909 66.6829268 7.09090909 64.4146341 4 64.4146341 4 57.6097561 7.09090909 57.6097561 7.09090909 52.3170732 10.1818182 52.3170732 10.1818182 48.5365854 14.8181818 48.5365854 14.8181818 45.5121951 18.6818182 45.5121951"></polygon>
        <polygon id="path-6" points="2.94736842 34 2.94736842 38.9677419 0 38.9677419 0 48.1935484 2.94736842 48.1935484 2.94736842 53.1612903 5.89473684 53.1612903 5.89473684 56 10.3157895 56 10.3157895 54.5806452 19.1578947 54.5806452 19.1578947 51.7419355 22.8421053 51.7419355 22.8421053 48.1935484 28 48.1935484 28 42.516129 22.8421053 42.516129 22.8421053 40.3870968 15.4736842 40.3870968 15.4736842 37.5483871 5.89473684 37.5483871 5.89473684 34"></polygon>
    </defs>
    <g id="Page-1" stroke="none" stroke-width="1" fill="none" fill-rule="evenodd">
        <g id="Boom2">
            <g id="Path-26">
                <use fill="#F9EE45" fill-rule="evenodd" xlink:href="#path-1"></use>
                <path stroke="#DE7337" stroke-width="3" d="M29.1510768,1.50000016 L29.1510768,3.69177981 L25.2886785,3.69177981 L25.2886785,5.42453375 L20.8503737,5.42453375 L20.8503737,7.52753076 L16.9726731,7.52753076 L16.9726731,10.3139622 L15.2798421,10.3139622 L15.2798421,13.0478135 L13.0893906,13.0478135 L13.0893906,15.938582 L10.9129134,15.938582 L10.9129134,17.9385651 L8.66677193,17.9385651 L8.66677193,21.260824 L6.46691147,21.260824 L6.46691147,25.0926818 L3.71984015,25.0926818 L3.71984015,29.4736477 L1.5,29.4736477 L1.5,45.0816614 L3.302328,45.0816614 L3.302328,49.4834043 L6.02813091,49.4834043 L6.02813091,63.705536 L8.25324599,63.705536 L8.25324599,66.4867198 L12.7257829,66.4867198 L12.7257829,70.3040682 L14.8051582,70.3040682 L14.8051582,72.0147058 L20.8919957,72.0147058 L20.8919957,74.1823365 L24.2207132,74.1823365 L24.2207132,76.3691086 L33.0271409,76.3691086 L33.0271409,78.5 L37.7579845,78.5 L37.7579845,76.2453911 L42.152896,76.2453911 L42.152896,74.1163975 L49.8772378,74.1163975 L49.8772378,70.2807832 L52.6907298,70.2807832 L52.6907298,67.4756561 L54.3635355,67.4756561 L54.3635355,63.6754752 L57.602175,63.6754752 L57.602175,60.3720372 L59.8095997,60.3720372 L59.8095997,58.2259951 L62.5679751,58.2259951 L62.5679751,56.0342155 L64.2232886,56.0342155 L64.2232886,53.8424359 L66.4303734,53.8424359 L66.4303734,51.6506563 L68.0856869,51.6506563 L68.0856869,48.3176375 L70.293244,48.3176375 L70.293244,42.3105926 L72.5,42.3105926 L72.5,31.6369701 L70.2927717,31.6369701 L70.2927717,25.5847208 L68.085545,25.5847208 L68.085545,19.5821821 L64.7293919,19.5821821 L64.7293919,14.0029355 L61.9789301,14.0029355 L61.9789301,9.71901388 L58.6594247,9.71901388 L58.6594247,6.97906591 L54.8431785,6.97906591 L54.8431785,5.26814799 L49.3250484,5.26814799 L49.3250484,3.59939838 L44.3586546,3.59939838 L44.3586546,1.50000001 L29.1510768,1.50000016 Z"></path>
            </g>
            <g id="Group-6" transform="translate(0.000000, 6.000000)">
                <g id="Path-27">
                    <use fill="#F9EE45" fill-rule="evenodd" xlink:href="#path-2"></use>
                    <path stroke="#DE7337" stroke-width="3" d="M27.3702896,5.03211009 L13.6897342,5.03211009 L13.6897342,7.55922923 L7.24213782,7.55922923 L7.24213782,13.9054795 L4.00777973,13.9054795 L4.00777973,21.480173 L1.5,21.480173 L1.5,29.2172385 L5.55174078,29.2172385 L5.55174078,33.6422938 L8.62054605,33.6422938 L8.62054605,36.2121063 L14.9989767,36.2121063 L14.9989767,38.7487992 L23.3324403,38.7487992 L23.3324403,41.8944954 L38.2769109,41.8944954 L38.2769109,39.9388971 L40.9220286,39.9388971 L40.9220286,37.4105814 L43.4092855,37.4105814 L43.4092855,34.8846589 L45.9755245,34.8846589 L45.9755245,19.5630451 L43.9467342,19.5630451 L43.9467342,16.3601161 L41.4841998,16.3601161 L41.4841998,12.9988692 L38.8886903,12.9988692 L38.8886903,9.4544481 L33.7457306,9.4544481 L33.7457306,7.5588167 L27.3702896,7.5588167 L27.3702896,5.03211009 Z"></path>
                </g>
                <g id="Path-28">
                    <use fill="#F9EE45" fill-rule="evenodd" xlink:href="#path-3"></use>
                    <path stroke="#DE7337" stroke-width="3" d="M27.534965,9.06171012 L33.1035569,9.06171012 L33.1035569,12.0712472 L35.5785162,12.0712472 L35.5785162,14.5157114 L38.6730405,14.5157114 L38.6730405,16.3735642 L41.7690345,16.3735642 L41.7690345,18.325686 L44.1669257,18.325686 L44.1669257,20.7972103 L46.6702955,20.7972103 L46.6702955,23.8241753 L49.814157,23.8241753 L49.814157,26.9377716 L52.8550279,26.9377716 L52.8550279,31.2981651 L64.1428113,31.2981651 L64.1428113,28.8274479 L65.9993507,28.8274479 L65.9993507,26.3740795 L67.9265734,26.3740795 L67.9265734,20.7329428 L65.3805565,20.7329428 L65.3805565,12.6795134 L63.5584077,12.6795134 L63.5584077,7.89719866 L60.4807962,7.89719866 L60.4807962,3.4142002 L56.7164124,3.4142002 L56.7164124,1.5 L33.723691,1.5 L33.723691,4.6495588 L30.629328,4.6495588 L30.629328,7.12027599 L27.534965,7.12027599 L27.534965,9.06171012 Z"></path>
                </g>
                <g id="Path-29">
                    <use fill="#F9EE45" fill-rule="evenodd" xlink:href="#path-4"></use>
                    <path stroke="#DE7337" stroke-width="3" d="M39.7867133,42.6289298 L39.7867133,45.8972141 L42.2662099,45.8972141 L42.2662099,51.0661739 L44.7503992,51.0661739 L44.7503992,53.5 L53.5238331,53.5 L53.5238331,50.2245767 L63.4415268,50.2245767 L63.4415268,48.2996854 L65.9229653,48.2996854 L65.9229653,45.8173397 L68.401554,45.8173397 L68.401554,43.3898999 L71.4996658,43.3898999 L71.4996658,41.3362478 L68.9529439,41.3362478 L68.9529439,34.5725803 L71.5,34.5725803 L71.5,23.1972477 L71.400295,23.1972477 L71.400295,25.7045615 L69.5406726,25.7045615 L69.5406726,28.2890414 L51.0281889,28.2890414 L51.0281889,25.6333144 L49.0843235,25.6333144 L49.0843235,34.5023025 L46.5342273,34.5023025 L46.5342273,36.9885134 L44.1258321,36.9885134 L44.1258321,39.5719845 L41.6451608,39.5719845 L41.6451608,42.62893 L39.7867133,42.6289298 Z"></path>
                </g>
            </g>
            <g id="Path-30">
                <use fill="#F9EE45" fill-rule="evenodd" xlink:href="#path-5"></use>
                <path stroke="#DE7337" stroke-width="3" d="M20.1818182,45.5 L20.1818182,47.0121951 L16.3181818,47.0121951 L16.3181818,50.0365854 L11.6818182,50.0365854 L11.6818182,53.8170732 L8.59090909,53.8170732 L8.59090909,59.1097561 L5.5,59.1097561 L5.5,62.9146341 L8.59090909,62.9146341 L8.59090909,65.1829268 L14.7727273,65.1829268 L14.7727273,68.2073171 L20.1818182,68.2073171 L20.1818182,70.4756098 L26.3636364,70.4756098 L26.3636364,73.5 L39.5909091,73.5 L39.5909091,70.4756098 L45,70.4756098 L45,68.2073171 L46.5,68.2073171 L50.4090909,68.2073171 L50.4090909,65.1829268 L53.5,65.1829268 L53.5,63.6463415 L50.4090909,63.6463415 L50.4090909,61.3780488 L45,61.3780488 L45,59.1097561 L41.9090909,59.1097561 L41.9090909,52.304878 L39.5909091,52.304878 L39.5909091,45.5 L20.1818182,45.5 Z"></path>
            </g>
            <g id="Path-31">
                <use fill="#F9EE45" fill-rule="evenodd" xlink:href="#path-6"></use>
                <path stroke="#DE7337" stroke-width="3" d="M4.39473684,34.0526316 L4.42105263,34.0263158 L4.44736842,34.0526316 L4.44736842,35.5 L4.39473684,35.5 L4.39473684,34.0526316 Z M4.44736842,39.0483871 L4.44736842,40.4677419 L1.5,40.4677419 L1.5,46.6935484 L4.44736842,46.6935484 L4.44736842,51.6612903 L7.39473684,51.6612903 L7.39473684,54.5 L8.81578947,54.5 L8.81578947,53.0806452 L17.6578947,53.0806452 L17.6578947,50.2419355 L21.3421053,50.2419355 L21.3421053,46.6935484 L26.5,46.6935484 L26.5,44.016129 L21.3421053,44.016129 L21.3421053,41.8870968 L13.9736842,41.8870968 L13.9736842,39.0483871 L4.44736842,39.0483871 Z"></path>
            </g>
        </g>
    </g>
</svg>