<?xml version="1.0" encoding="UTF-8"?>
<svg width="139px" height="120px" viewBox="0 0 139 120" version="1.1" xmlns="http://www.w3.org/2000/svg" xmlns:xlink="http://www.w3.org/1999/xlink">
    <!-- Generator: Sketch 49.3 (51167) - http://www.bohemiancoding.com/sketch -->
    <title>Boom4</title>
    <desc>Created with Sketch.</desc>
    <defs>
        <rect id="path-1" x="135" y="21" width="4" height="4"></rect>
    </defs>
    <g id="Page-1" stroke="none" stroke-width="1" fill="none" fill-rule="evenodd">
        <g id="Boom4">
            <rect id="Rectangle-7" fill="#B1291A" x="7" y="69" width="4" height="4"></rect>
            <rect id="Rectangle-8" fill="#B1291A" x="26" y="73" width="4" height="4"></rect>
            <rect id="Rectangle-12" fill="#B1291A" x="0" y="91" width="4" height="4"></rect>
            <rect id="Rectangle-13" fill="#B1291A" x="118" y="79" width="4" height="4"></rect>
            <rect id="Rectangle-14" fill="#B1291A" x="121" y="94" width="4" height="4"></rect>
            <g id="Rectangle-15">
                <use fill="#D8D8D8" fill-rule="evenodd" xlink:href="#path-1"></use>
                <rect stroke="#979797" stroke-width="1" x="135.5" y="21.5" width="3" height="3"></rect>
            </g>
            <rect id="Rectangle-16" fill="#B1291A" x="73" y="76" width="4" height="4"></rect>
            <rect id="Rectangle-17" fill="#B1291A" x="106" y="116" width="4" height="4"></rect>
            <rect id="Rectangle-17-Copy-2" fill="#B1291A" x="37" y="83" width="4" height="4"></rect>
            <rect id="Rectangle-17-Copy" fill="#B1291A" x="110" y="113" width="4" height="4"></rect>
            <rect id="Rectangle-17-Copy-3" fill="#B1291A" x="41" y="79" width="4" height="4"></rect>
            <rect id="Rectangle-6" fill="#B1291A" x="59" y="47" width="4" height="4"></rect>
            <rect id="Rectangle-5" fill="#B1291A" x="103" y="61" width="7" height="4"></rect>
            <polygon id="Path-41" fill="#B1291A" points="59 14.6938776 62.6734694 14.6938776 62.6734694 11.0204082 65.6122449 11.0204082 65.6122449 14.6938776 69.2857143 14.6938776 69.2857143 17.6326531 73.6938776 17.6326531 73.6938776 11.0204082 70.755102 11.0204082 70.755102 0 81.0408163 0 81.0408163 3.67346939 83.9795918 3.67346939 83.9795918 14.6938776 88.3877551 14.6938776 88.3877551 21.3061224 91.3265306 21.3061224 91.3265306 24.9795918 95 24.9795918 95 32.3265306 91.3265306 32.3265306 91.3265306 28.6530612 88.3877551 28.6530612 88.3877551 22.0408163 80.3061224 22.0408163 80.3061224 28.6530612 77 28.6530612 77 31.5918367 80.3061224 31.5918367 80.3061224 36 70.0204082 36 70.0204082 24.9795918 65.6122449 24.9795918 65.6122449 18 59 18"></polygon>
            <polygon id="Path-42" fill="#B1291A" points="45.12 11.5 48 11.5 48 19 41.52 19 41.52 15.25 37.92 15.25 37.92 19 34.32 19 34.32 15.25 30 15.25 30 10.75 34.32 10.75 34.32 7 41.52 7 41.52 15.25 45.12 15.25"></polygon>
            <polygon id="Path-43" fill="#B1291A" points="106.75 21 114.25 21 114.25 28.4285714 118 28.4285714 118 47 106.75 47 106.75 39.5714286 103 39.5714286 103 35.7835855 106.750735 35.7835855"></polygon>
            <polygon id="Path-44" fill="#B1291A" points="70.5004289 39 81 39 81 54.6176771 78.0000695 54.6176771 78.0000695 65 70.5004289 65 70.5004289 61.2857143 66.7505821 61.2857143 66.7505821 57.4978712 63 57.4978712 63 53.8571428 66.8248294 53.8571428 66.8248294 43.4356276 70.5004931 43.4356276"></polygon>
            <polygon id="Path-45" fill="#B1291A" points="89 39.6363636 91.8 39.6363636 91.8 36 96 36 96 44 89 44"></polygon>
            <rect id="Rectangle-4" fill="#B1291A" x="135" y="21" width="4" height="4"></rect>
            <polygon id="Path-46" fill="#B1291A" points="19.6842105 43 26.3157895 43 26.3157895 47.5 30 47.5 30 51.25 23.3684211 51.25 23.3684211 55 18.9473684 55 18.9473684 51.25 16 51.25 16 46.75 19.6842105 46.75"></polygon>
            <polygon id="Path-47" fill="#B1291A" points="37.75 58 44.5 58 44.5 61.75 48.25 61.75 48.25 58 52 58 52 61.75 48.25 61.75 48.25 65.5 44.5 65.5 44.5 69.25 48.25 69.25 48.25 73 44.5 73 44.5 76 37.75 76 37.75 73 34 73 34 62.5 37.75 62.5"></polygon>
            <polygon id="Path-48" fill="#B1291A" points="55.1425451 61 62.5709084 61 62.5709084 64.6733959 66.2850901 64.6733959 66.2850901 68.4195394 70 68.4195394 70 75.7305184 66.2849024 75.7305184 66.2849024 79.3669795 55.1425451 79.3669795 55.1425451 83.0403753 51.4283634 83.0403753 51.4283634 93.3258838 47.6406264 93.3258838 47.6406264 97 44 97 44 89.6524879 47.7141817 89.6524879 47.7141817 78.6078381 51.4284458 78.6078381 51.4284458 68.3205301 55.14264 68.3205301"></polygon>
            <polygon id="Path-49" fill="#B1291A" points="95.6111423 84 102.111121 84 102.111121 86.9410527 105 86.9410527 105 90.6901739 102.038743 90.6901739 102.038743 98 92 98 92 86.9166403 95.687433 86.9166403"></polygon>
            <polygon id="Path-50" fill="#B1291A" points="34.4 101 37.3333333 101 37.3333333 104.5 41 104.5 41 108 30 108 30 104.5 34.4 104.5"></polygon>
            <polygon id="Path-51" fill="#B1291A" points="59 91.5 62.6 91.5 62.6 87 66.2 87 66.2 84 72.68 84 72.68 91.5 77 91.5 77 102 73.4 102 73.4 105.75 77 105.75 77 114 62.6 114 62.6 105.75 59 105.75 59 102 62.6 102 62.6 98.25 59 98.25"></polygon>
        </g>
    </g>
</svg>