<?xml version="1.0" encoding="UTF-8"?>
<svg width="93px" height="104px" viewBox="0 0 93 104" version="1.1" xmlns="http://www.w3.org/2000/svg" xmlns:xlink="http://www.w3.org/1999/xlink">
    <!-- Generator: Sketch 49.3 (51167) - http://www.bohemiancoding.com/sketch -->
    <title>Boom1</title>
    <desc>Created with Sketch.</desc>
    <defs>
        <polygon id="path-1" points="45.8695652 42.9319685 40 42.9319685 40 29.530386 46.8478261 29.530386 46.8478261 24.7441066 49.7826087 24.7441066 49.7826087 21.7169977 55.709108 21.7169977 55.709108 19 61.5217392 19 61.5217392 20.915083 67.3913043 20.915083 67.3913043 19.0005712 81.12185 19.0005712 81.12185 21.8725419 85 21.8725419 85 32.5747884 75.1845847 32.5747884 75.1845847 36.2313182 72.2826087 36.2313182 72.2826087 43"></polygon>
        <polygon id="path-2" points="49.1052632 42.1170804 49.1052632 45.9201427 42.4736842 45.9201427 42.4736842 48.7724394 38.6842105 48.7724394 38.6842105 56.378564 35.8421053 56.378564 35.8421053 66.8369853 33 66.8369853 33 73.4923443 41.5263158 73.4923443 41.5263158 78.2461721 50.0526316 78.2461721 50.0526316 83 69.9473684 83 69.9473684 80.1477033 73.7368421 80.1477033 73.7368421 76.344641 73.7368421 73.4923443 76.5789474 73.4923443 76.5789474 69.5722374 83.2623575 69.5722374 83.2623575 65.8858527 87 65.8858527 87 51.6247361 83.0938999 51.6247361 83.0938999 45.9189421 78.473684 45.9189421 78.473684 42"></polygon>
        <polygon id="path-3" points="71.84 30.1511631 71.84 32.9456901 68 32.9456901 68 42.3072395 74.7816194 42.3072395 74.7816194 47 88.1602648 47 88.1602648 43.1922889 92 43.1922889 92 32.9456901 88.16 32.9456901 88.16 30"></polygon>
        <polygon id="path-4" points="68 73.0994881 71.8459937 73.0994881 71.8459937 68.1379514 75.6919875 68.1379514 75.6919875 65 79.5411449 65 79.5411449 68.1379531 86.2684702 68.1379531 86.2684702 72.2293395 93 72.2293395 93 82.0802519 86.20683 82.0802519 86.20683 86 71.8138756 86 71.8138756 82.0301159 68 82.0301159"></polygon>
        <polygon id="path-5" points="62.9626559 81.4323704 62.9626559 85.1839485 58.9464773 85.1839485 58.9464773 88 40.5334769 88 40.5334769 85.1838401 36.6628639 85.1838401 36.6628639 81.4323704 30.8184657 81.4323704 30.8184657 77.6807923 26.8022871 77.6807923 26.8022871 74.8647407 24 74.8647407 24 71 43.481698 71 43.481698 74.9791341 54.1966902 74.9791341 54.1966902 77.8387604 63 77.8387604"></polygon>
        <polygon id="path-6" points="40.9981815 37.0792221 37.2208078 37.0792221 37.2208078 33 27.7766581 33 27.7766581 37.0792222 24 37.0792222 24 49.978855 28.8082444 49.978855 28.8082444 54 33.4444508 54 33.4444508 49.8222798 37.3660878 49.8222798 37.3660878 46.8523604 41 46.8523604"></polygon>
        <polygon id="path-7" points="30.5252964 76 25.7633132 76 25.7633132 71.0710294 21 71.0710294 21 65.3668427 25.7633132 65.3668427 25.7633132 54.6898373 28.6209858 54.6898373 28.6209858 51.6746654 33.4491456 51.6746654 33.4491456 47 38.1454997 47 38.1454997 50.8670829 41.9554032 50.8670829 41.9554032 57.7023353 38.0441105 57.7023353 38.0441105 61.5016338 43 61.5016338 43 65.3679733 38.1454995 65.3679733 38.1454995 68.2667947 35.1335064 68.2667947 35.1335064 73.167416 30.5252964 73.167416"></polygon>
        <polygon id="path-8" points="3.71428571 27 3.71428571 30.6666667 0 30.6666667 0 34.3333333 2.78571429 34.3333333 2.78571429 38 6.5 38 6.5 34.3333333 13 34.3333333 13 30.6666667 10.2142857 30.6666667 10.2142857 27"></polygon>
        <polygon id="path-9" points="42 2.96679732 42 6.92252709 45 6.92252709 45 11 49.0018939 11 49.0018939 6.92252666 53 6.92252666 53 0 44.9377423 0 44.9377423 3.14729074"></polygon>
        <polygon id="path-10" points="85.0001677 10.4759356 88.5000839 10.4759356 88.5000839 7 92 7 92 14 85 14"></polygon>
        <rect id="path-11" x="71" y="102" width="2" height="2"></rect>
        <rect id="path-12" x="30" y="96" width="2" height="2"></rect>
        <rect id="path-13" x="74" y="98" width="2" height="2"></rect>
    </defs>
    <g id="Page-1" stroke="none" stroke-width="1" fill="none" fill-rule="evenodd">
        <g id="Boom1">
            <g id="Path-18">
                <use fill="#F9EE45" fill-rule="evenodd" xlink:href="#path-1"></use>
                <path stroke="#DE7337" stroke-width="3" d="M70.7826087,41.4961315 L70.7826087,34.7313182 L73.6845847,34.7313182 L73.6845847,31.0747884 L83.5,31.0747884 L83.5,23.3725419 L79.62185,23.3725419 L79.62185,20.5005712 L68.8913043,20.5005712 L68.8913043,22.415083 L60.0217392,22.415083 L60.0217392,20.5 L57.209108,20.5 L57.209108,23.2169977 L51.2826087,23.2169977 L51.2826087,26.2441066 L48.3478261,26.2441066 L48.3478261,31.030386 L41.5,31.030386 L41.5,41.4319685 L45.8695652,41.4319685 L45.8734287,41.4319735 L70.7826087,41.4961315 Z"></path>
            </g>
            <g id="Path-16">
                <use fill="#F9EE45" fill-rule="evenodd" xlink:href="#path-2"></use>
                <path stroke="#DE7337" stroke-width="3" d="M50.6052632,43.6111124 L50.6052632,47.4201427 L43.9736842,47.4201427 L43.9736842,50.2724394 L40.1842105,50.2724394 L40.1842105,57.878564 L37.3421053,57.878564 L37.3421053,68.3369853 L34.5,68.3369853 L34.5,71.9923443 L43.0263158,71.9923443 L43.0263158,76.7461721 L50.0526316,76.7461721 L51.5526316,76.7461721 L51.5526316,81.5 L68.4473684,81.5 L68.4473684,78.6477033 L72.2368421,78.6477033 L72.2368421,71.9923443 L75.0789474,71.9923443 L75.0789474,68.0722374 L81.7623575,68.0722374 L81.7623575,64.3858527 L85.5,64.3858527 L85.5,53.1247361 L81.5938999,53.1247361 L81.5938999,47.4189421 L76.973684,47.4189421 L76.973684,43.5059918 L50.6052632,43.6111124 Z"></path>
            </g>
            <g id="Path-17">
                <use fill="#F9EE45" fill-rule="evenodd" xlink:href="#path-3"></use>
                <path stroke="#DE7337" stroke-width="3" d="M73.34,31.6373338 L73.34,34.4456901 L69.5,34.4456901 L69.5,40.8072395 L76.2816194,40.8072395 L76.2816194,45.5 L86.6602648,45.5 L86.6602648,41.6922889 L90.5,41.6922889 L90.5,34.4456901 L86.66,34.4456901 L86.66,31.513958 L73.34,31.6373338 Z"></path>
            </g>
            <g id="Path-19">
                <use fill="#F9EE45" fill-rule="evenodd" xlink:href="#path-4"></use>
                <path stroke="#DE7337" stroke-width="3" d="M69.5,74.5994881 L69.5,80.5301159 L73.3138756,80.5301159 L73.3138756,84.5 L84.70683,84.5 L84.70683,80.5802519 L91.5,80.5802519 L91.5,73.7293395 L84.7684702,73.7293395 L84.7684702,69.6379531 L78.0411449,69.6379531 L78.0411449,66.5 L77.1919875,66.5 L77.1919875,69.6379514 L73.3459937,69.6379514 L73.3459937,74.5994881 L69.5,74.5994881 Z"></path>
            </g>
            <g id="Path-20">
                <use fill="#F9EE45" fill-rule="evenodd" xlink:href="#path-5"></use>
                <path stroke="#DE7337" stroke-width="3" d="M61.4843313,79.3387604 L52.6966902,79.3387604 L52.6966902,76.4791341 L41.981698,76.4791341 L41.981698,72.5 L25.5,72.5 L25.5,73.3647407 L28.3022871,73.3647407 L28.3022871,76.1807923 L32.3184657,76.1807923 L32.3184657,79.9323704 L38.1628639,79.9323704 L38.1628639,83.6838401 L42.0334769,83.6838401 L42.0334769,86.5 L57.4464773,86.5 L57.4464773,83.6839485 L61.4626559,83.6839485 L61.4626559,81.4323704 L61.4627368,81.4167835 L61.4843313,79.3387604 Z"></path>
            </g>
            <g id="Path-21">
                <use fill="#F9EE45" fill-rule="evenodd" xlink:href="#path-6"></use>
                <path stroke="#DE7337" stroke-width="3" d="M39.4984606,38.5792221 L35.7208078,38.5792221 L35.7208078,34.5 L29.2766581,34.5 L29.2766581,38.5792222 L25.5,38.5792222 L25.5,48.478855 L30.3082444,48.478855 L30.3082444,52.5 L31.9444508,52.5 L31.9444508,48.3222798 L35.8660878,48.3222798 L35.8660878,45.3523604 L39.4997209,45.3523604 L39.4984606,38.5792221 Z"></path>
            </g>
            <g id="Path-22">
                <use fill="#F9EE45" fill-rule="evenodd" xlink:href="#path-7"></use>
                <path stroke="#DE7337" stroke-width="3" d="M29.0252964,74.5 L29.0252964,71.667416 L33.6335064,71.667416 L33.6335064,66.7667947 L36.6454995,66.7667947 L36.6454995,63.8679733 L41.5,63.8679733 L41.5,63.0016338 L36.5441105,63.0016338 L36.5441105,56.2023353 L40.4554032,56.2023353 L40.4554032,52.3670829 L36.6454997,52.3670829 L36.6454997,48.5 L34.9491456,48.5 L34.9491456,53.1746654 L30.1209858,53.1746654 L30.1209858,56.1898373 L27.2633132,56.1898373 L27.2633132,66.8668427 L22.5,66.8668427 L22.5,69.5710294 L27.2633132,69.5710294 L27.2633132,74.5 L29.0252964,74.5 Z"></path>
            </g>
            <g id="Path-23">
                <use fill="#F9EE45" fill-rule="evenodd" xlink:href="#path-8"></use>
                <path stroke="#DE7337" stroke-width="3" d="M5.21428571,28.5 L5.21428571,32.1666667 L1.5,32.1666667 L1.5,32.8333333 L4.28571429,32.8333333 L4.28571429,36.5 L5,36.5 L5,32.8333333 L11.5,32.8333333 L11.5,32.1666667 L8.71428571,32.1666667 L8.71428571,28.5 L5.21428571,28.5 Z"></path>
            </g>
            <g id="Path-24">
                <use fill="#F9EE45" fill-rule="evenodd" xlink:href="#path-9"></use>
                <path stroke="#DE7337" stroke-width="3" d="M46.4377423,1.5 L46.4377423,0 L44.9377423,1.5 L46.4377423,1.5 Z M51.5,1.5 L53,1.5 L51.5,0 L51.5,1.5 Z M51.5,5.42252666 L51.5,6.92252666 L53,5.42252666 L51.5,5.42252666 Z M47.5018939,9.5 L47.5018939,11 L49.0018939,9.5 L47.5018939,9.5 Z M46.5,9.5 L45,9.5 L46.5,11 L46.5,9.5 Z M43.5,5.42252709 L42,5.42252709 L43.5,6.92252709 L43.5,5.42252709 Z M43.5,4.56178502 L43.5,2.96679732 L41.9080142,4.4639742 L43.5,4.56178502 Z"></path>
            </g>
            <g id="Path-25">
                <use fill="#F9EE45" fill-rule="evenodd" xlink:href="#path-10"></use>
                <path stroke="#DE7337" stroke-width="3" d="M90.0000839,8.5 L90.0000839,7 L88.5000839,8.5 L90.0000839,8.5 Z M90.5,8.5 L92,8.5 L90.5,7 L90.5,8.5 Z M90.5,12.5 L90.5,14 L92,12.5 L90.5,12.5 Z M86.5000714,12.5 L85,12.5 L86.5,14.0000714 L86.5000714,12.5 Z M86.5000963,11.9759356 L86.5001677,10.476007 L85.0001677,11.9759356 L86.5000963,11.9759356 Z"></path>
            </g>
            <g id="Rectangle-3">
                <use fill="#F9EE45" fill-rule="evenodd" xlink:href="#path-11"></use>
                <rect stroke="#DE7337" stroke-width="3" x="72.5" y="103.5" width="1" height="1"></rect>
            </g>
            <g id="Rectangle-3-Copy-2">
                <use fill="#F9EE45" fill-rule="evenodd" xlink:href="#path-12"></use>
                <rect stroke="#DE7337" stroke-width="3" x="31.5" y="97.5" width="1" height="1"></rect>
            </g>
            <g id="Rectangle-3-Copy">
                <use fill="#F9EE45" fill-rule="evenodd" xlink:href="#path-13"></use>
                <rect stroke="#DE7337" stroke-width="3" x="75.5" y="99.5" width="1" height="1"></rect>
            </g>
        </g>
    </g>
</svg>