<?xml version="1.0" encoding="UTF-8"?>
<svg width="102px" height="100px" viewBox="0 0 102 100" version="1.1" xmlns="http://www.w3.org/2000/svg" xmlns:xlink="http://www.w3.org/1999/xlink">
    <!-- Generator: Sketch 49.3 (51167) - http://www.bohemiancoding.com/sketch -->
    <title>Boom3</title>
    <desc>Created with Sketch.</desc>
    <defs></defs>
    <g id="Page-1" stroke="none" stroke-width="1" fill="none" fill-rule="evenodd">
        <g id="Boom3">
            <polygon id="Path-3" fill="#B1291A" points="47.0954314 0.000451708027 43.4043775 0.000451708027 43.4043775 2.30394223 38.7905601 2.30394223 38.7905601 4.14673464 36.4379656 4.14673464 36.4379656 8.75394153 34.1767427 8.75394153 34.1767427 11.0572062 31.869834 11.0572062 31.869834 8.70809758 29.562473 8.70809758 29.562473 6.91092321 24.926094 6.91092321 24.926094 4.60731813 13.8759461 4.60731813 13.8759461 6.91092327 11.5690374 6.91092327 11.5690374 8.75371569 9.21644294 8.75371569 9.21644294 11.5638927 6.95475104 11.5638927 6.95475104 20.3198325 9.31784486 20.3198325 9.31784486 26.7337453 11.6132911 26.7337453 11.6132911 29.0248584 13.9224224 29.0248584 13.9224224 31.7890105 7.40023448 31.7890105 7.40023448 33.6314858 5.10969307 33.6314858 5.10969307 35.9349038 2.80278437 35.9349038 2.80278437 40.5648625 0 40.5648625 0 47.4655339 2.34143983 47.4655339 2.34143983 51.6242319 4.2501078 51.6242319 4.2501078 53.9365718 6.5340869 53.9365718 6.5340869 56.2442567 8.83982176 56.2442567 8.83982176 58.9700883 11.5690374 58.9700883 11.5690374 60.8126014 8.80074699 60.8126014 8.80074699 63.1617101 6.95465465 63.1617101 6.95465465 67.723073 4.60261456 67.723073 4.60261456 81.089764 6.54778422 81.089764 6.54778422 83.4225576 8.84059021 83.4225576 8.84059021 85.7290311 11.6015698 85.7290311 11.6015698 87.9940225 15.7472014 87.9940225 15.7472014 90.2974234 29.1333764 90.2974234 29.1333764 87.9417347 31.4656857 87.9417347 31.4656857 90.3315979 33.7555282 90.3315979 33.7555282 92.1883361 36.0595951 92.1883361 36.0595951 94.9370704 38.7907578 94.9370704 38.7907578 97.2539766 41.1345184 97.2539766 41.1345184 99.5115453 45.275653 99.5115453 45.275653 97.1569629 47.6136195 97.1569629 47.6136195 94.8456021 49.9230553 94.8456021 49.9230553 92.599989 51.709249 92.599989 51.709249 87.9708081 54.939003 87.9708081 54.939003 94.4599432 57.2883549 94.4599432 57.2883549 97.2080797 63.7711363 97.2080797 63.7711363 100 67.8577063 100 67.8577063 97.1699854 70.2179154 97.1699854 70.2179154 92.6004596 72.4714271 92.6004596 72.4714271 85.6902991 74.7783358 85.6902991 74.7783358 88.0394077 77.0856968 88.0394077 77.0856968 92.3665763 79.8634545 92.3665763 79.8634545 94.9042805 88.6319339 94.9042805 88.6319339 92.6007387 90.465315 92.6007387 90.465315 90.2972801 93.2336054 90.2972801 93.2336054 81.5319009 90.9266648 81.5319009 90.9266648 79.1946773 88.1580255 79.1946773 88.1580255 76.476337 97.8584014 76.476337 97.8584014 71.8693429 99.6929498 71.8693429 99.6929498 67.6975571 102 67.6975571 102 61.2732995 99.6472667 61.2732995 99.6472667 56.6476571 97.3356419 56.6476571 97.3356419 54.3622738 88.619788 54.3622738 88.619788 49.7558469 86.3128793 49.7558469 86.3128793 47.4523564 90.9266967 47.4523564 90.9266967 49.801465 95.0793837 49.801465 95.0793837 47.4523564 99.6929498 47.4523564 99.6929498 45.1488659 101.999858 45.1488659 101.999858 33.5946162 99.6397601 33.5946162 99.6397601 31.2704177 97.3853054 31.2704177 97.3853054 29.4851302 90.9266967 29.4851302 90.9266967 27.1816398 88.1202212 27.1816398 88.1202212 24.8778338 90.9266967 24.8778338 90.9266967 22.3971915 92.8797544 22.3971915 92.8797544 20.2684587 95.5797579 20.2684587 95.5797579 9.21434433 93.2336054 9.21434433 93.2336054 6.91092327 90.9266967 6.91092327 90.9266967 4.56181465 82.1603246 4.56181465 82.1603246 6.9556951 79.8530992 6.9556951 79.8530992 9.21441383 77.0852445 9.21441383 77.0852445 4.58445514 74.778221 4.58445514 74.778221 2.30394223 72.4257391 2.30394223 72.4257391 2.84217094e-14 63.6564414 2.84217094e-14 63.6564414 2.76506854 61.859647 2.76506854 61.859647 4.60743275 59.5070526 4.60743275 59.5070526 11.5303591 56.7844194 11.5303591 56.7844194 9.21441379 54.4775393 9.21441379 54.4775393 4.58445514 52.1705158 4.58445514 52.1705158 2.25789624 47.0676037 2.25789624"></polygon>
            <polygon id="Path-4" fill="#F9EE3C" points="25 9 25 13.5833333 23.24 13.5833333 23.24 17.7083333 20.6 17.7083333 20.6 20 14 20 14 13.5833333 16.2 13.5833333 16.2 10.8333333 18.4 10.8333333 18.4 9"></polygon>
            <polygon id="Path-5" fill="#F9EE3C" points="41 9 41 11.3684211 42.76 11.3684211 42.76 15.6315789 41 15.6315789 41 18 49.36 18 49.36 15.6315789 47.16 15.6315789 47.16 13.5 49.36 13.5 49.36 11.3684211 52 11.3684211 52 9 47.16 9 47.16 11.3684211 43.64 11.3684211 43.64 9"></polygon>
            <polygon id="Path-6" fill="#F9EE3C" points="65 11 65 15.125 67.3333333 15.125 67.3333333 19.7083333 69.6666667 19.7083333 69.6666667 22 72 22 72 17.4166667 69.6666667 17.4166667 69.6666667 15.125 72 15.125 72 11 69.6666667 11 69.6666667 13.2916667 67.3333333 13.2916667 67.3333333 11"></polygon>
            <polygon id="Path-7" fill="#F9EE3C" points="83.3333333 20 88 20 88 15.2631579 85.6666667 15.2631579 85.6666667 11 83.3333333 11 83.3333333 13.8421053 81 13.8421053 81 17.6315789 83.3333333 17.6315789"></polygon>
            <polygon id="Path-8" fill="#F9EE3C" points="13.3863636 43 13.3863636 45.2857143 11 45.2857143 11 50.3142857 13.3863636 50.3142857 13.3863636 54.4285714 15.7727273 54.4285714 15.7727273 56.7142857 22.9318182 56.7142857 22.9318182 59 27.2272727 59 27.2272727 56.7142857 29.6136364 56.7142857 29.6136364 52.1428571 32 52.1428571 32 49.4 29.6136364 49.4 29.6136364 45.2857143 27.2272727 45.2857143 27.2272727 43"></polygon>
            <polygon id="Path-32" fill="#FCED2C" points="33 35.6 35.3611111 35.6 35.3611111 33.4 37.7222222 33.4 37.7222222 29 46.6944444 29 46.6944444 31.2 50 31.2 50 33.4 46.6944444 33.4 46.6944444 35.6 50 35.6 50 37.8 46.6944444 37.8 46.6944444 40 35.3611111 40 35.3611111 37.8 33 37.8"></polygon>
            <polygon id="Path-33" fill="#FCED2C" points="81 32 81 38.2758621 83.2 38.2758621 83.2 40.5172414 81 40.5172414 81 43.2068966 83.2 43.2068966 83.2 45 87.6 45 87.6 40.5172414 89.8 40.5172414 89.8 43.2068966 92 43.2068966 92 38.2758621 89.8 38.2758621 89.8 36.0344828 87.6 36.0344828 87.6 34.2413793 85.4 34.2413793 85.4 32"></polygon>
            <polygon id="Path-34" fill="#FCED2C" points="59 49.6470588 63.95 49.6470588 63.95 52 70.25 52 70.25 49.6470588 72.05 49.6470588 72.05 52 77 52 77 44.4705882 74.75 44.4705882 74.75 40.2352941 70.25 40.2352941 70.25 37.8823529 68 37.8823529 68 36 65.75 36 65.75 37.8823529 59 37.8823529"></polygon>
            <polygon id="Path-35" fill="#FCED2C" points="47 61 54 61 54 65.7368421 52.1333333 65.7368421 52.1333333 67.6315789 49.8 67.6315789 49.8 70 47 70"></polygon>
            <polygon id="Path-36" fill="#FCED2C" points="75 65.0285714 79.125 65.0285714 79.125 62.2857143 83.7083333 62.2857143 83.7083333 60 86 60 86 69.1428571 81.4166667 69.1428571 81.4166667 73.7142857 79.125 73.7142857 79.125 76 76.8333333 76 76.8333333 73.7142857 75 73.7142857"></polygon>
            <polygon id="Path-37" fill="#FCED2C" points="81 85.375 83.3333333 85.375 83.3333333 83.1875 85.6666667 83.1875 85.6666667 81 88 81 88 85.375 85.6666667 85.375 85.6666667 88 81 88"></polygon>
            <polygon id="Path-38" fill="#FCED2C" points="57 81.125 59.2916667 81.125 59.2916667 83.4166667 61.5833333 83.4166667 61.5833333 81.125 63.4166667 81.125 63.4166667 79.2916667 65.7083333 79.2916667 65.7083333 77 68 77 68 85.7083333 63.4166667 85.7083333 63.4166667 88 61.5833333 88 61.5833333 85.7083333 57 85.7083333"></polygon>
            <polygon id="Path-39" fill="#FCED2C" points="11 70 20 70 20 72.64 17.6315789 72.64 17.6315789 74.4 20 74.4 20 76.16 22.3684211 76.16 22.3684211 74.4 27.1052632 74.4 27.1052632 76.16 24.7368421 76.16 24.7368421 78.36 29 78.36 29 81 15.2631579 81 15.2631579 78.36 13.3684211 78.36 13.3684211 76.16 11 76.16"></polygon>
            <polygon id="Path-40" fill="#FCED2C" points="37 86 46 86 46 88.2222222 43.75 88.2222222 43.75 90 39.7 90 39.7 88 37 88"></polygon>
        </g>
    </g>
</svg>